<?xml version="1.0" encoding="utf-8"?>
<!-- Generator: Adobe Illustrator 27.6.0, SVG Export Plug-In . SVG Version: 6.00 Build 0)  -->
<svg version="1.1" id="Layer_1" xmlns="http://www.w3.org/2000/svg" xmlns:xlink="http://www.w3.org/1999/xlink" x="0px" y="0px"
	 viewBox="0 0 124.6 124.7" style="enable-background:new 0 0 124.6 124.7;" xml:space="preserve">
<style type="text/css">
	.st0{clip-path:url(#SVGID_00000107567936479185317130000010632059416540261279_);}
	.st1{fill:#FFC421;}
	.st2{enable-background:new    ;}
</style>
<g transform="translate(-1046.619 -4546)">
	<g transform="translate(1046.619 4546)">
		<g>
			<defs>
				<rect id="SVGID_1_" width="124.6" height="124.7"/>
			</defs>
			<clipPath id="SVGID_00000054944009638915688330000011013307516006184591_">
				<use xlink:href="#SVGID_1_"  style="overflow:visible;"/>
			</clipPath>
			<g style="clip-path:url(#SVGID_00000054944009638915688330000011013307516006184591_);">
				<path class="st1" d="M122.2,22.2c-1.2-10.3-9.2-18.4-19.5-19.6C89.3,0.8,75.8-0.1,62.3,0C48.8-0.1,35.3,0.8,22,2.5
					C11.7,3.8,3.7,11.9,2.5,22.2C0.9,35.5,0,48.9,0,62.3c0,13.4,0.9,26.8,2.5,40.2c1.2,10.3,9.2,18.4,19.5,19.6
					c13.4,1.8,26.9,2.6,40.4,2.5c13.5,0.1,27-0.8,40.4-2.5c10.2-1.3,18.3-9.4,19.5-19.6c1.6-13.3,2.5-26.7,2.5-40.2
					C124.6,48.9,123.8,35.5,122.2,22.2"/>
			</g>
		</g>
	</g>
	<g class="st2">
		<path d="M1058.4,4577.7h3.6c1.1-5,4.7-7.5,8.5-7.5c4.2,0,6.8,2.9,7.8,6.7l-2.6,0.9c-0.8-3.5-2.8-5.2-5.2-5.2
			c-2.7,0-4.9,1.7-5.8,5.1h9.2l-0.5,2.3h-9c0,0.4,0,0.8,0,1.2c0,0.3,0,0.7,0,1h8.3l-0.5,2.3h-7.5c0.9,3.6,3.2,5.5,6,5.5
			c2.7,0,4.6-1.7,5-4.7l2.6,0.5c-0.8,3.8-3.3,6.6-7.6,6.6c-4,0-7.6-2.6-8.7-7.8h-4.4v-2.3h4.2l0-1c0-0.4,0-0.8,0-1.2h-3.2V4577.7z"
			/>
	</g>
	<g class="st2">
		<path d="M1100.1,4600.8h-18.8v-5.9l17.9-25.3h9.4v24.9h5.9v6.4h-5.9v8.5h-8.5V4600.8z M1100.4,4594.4v-15.9h-0.1l-11.1,15.9
			H1100.4z"/>
		<path d="M1118.1,4589.8c0-12.9,5.2-21,15.9-21c10.8,0,15.9,8.2,15.9,21c0,12.9-5.2,20.2-15.9,20.2
			C1123.3,4610.1,1118.1,4602.8,1118.1,4589.8z M1134,4603.1c5,0,7.4-3.8,7.4-13.3c0-9.6-2.5-13.9-7.4-13.9c-5.1,0-7.4,4.9-7.4,13.8
			C1126.6,4599.2,1128.9,4603.1,1134,4603.1z"/>
	</g>
	<g class="st2">
		<path d="M1071.2,4624.6h2.4v1h0c0.4-0.6,1.1-1.2,2.2-1.2c1.4,0,3.4,1,3.4,4.1c0,3-1.9,4.1-3.4,4.1c-1,0-1.7-0.5-2.2-1.1h0v4.1
			h-2.4V4624.6z M1075.2,4630.6c0.9,0,1.6-0.7,1.6-2.2c0-1.5-0.7-2.1-1.6-2.1c-0.9,0-1.6,0.7-1.6,2.1
			C1073.6,4629.8,1074.2,4630.6,1075.2,4630.6z"/>
		<path d="M1079.9,4628.5c0-2.7,1.8-4.2,4-4.2c2.5,0,3.8,1.5,3.8,4v0.8h-5.3c0.1,0.9,0.8,1.5,1.7,1.5c0.8,0,1.3-0.5,1.5-1.1l1.9,1
			c-0.5,1.1-1.7,2.1-3.6,2.1C1082,4632.6,1079.9,4631.4,1079.9,4628.5z M1085.2,4627.6c0-1-0.4-1.6-1.3-1.6c-0.9,0-1.4,0.6-1.4,1.6
			H1085.2z"/>
		<path d="M1088.9,4624.6h2.4v1.1h0c0.4-0.7,1-1.3,1.8-1.3c0.4,0,0.8,0.1,1.2,0.3l-0.4,2.2c-0.3-0.1-0.7-0.2-1-0.2
			c-1.1,0-1.5,0.9-1.5,2.4v3.3h-2.4V4624.6z"/>
		<path d="M1099.3,4624.6h2.4v1h0c0.4-0.6,1-1.2,2.1-1.2c0.8,0,1.6,0.3,2.1,1.3c0.5-0.7,1.2-1.3,2.4-1.3c1,0,2.7,0.4,2.7,3v5h-2.4
			v-4.8c0-0.7-0.3-1.2-0.9-1.2c-1,0-1.3,1-1.3,1.8v4.2h-2.4v-4.8c0-0.7-0.3-1.2-1-1.2c-1,0-1.3,0.9-1.3,1.8v4.2h-2.4V4624.6z"/>
		<path d="M1112.3,4630.3c0-1.4,1-2.3,3.3-2.7l1.2-0.2c0.5-0.1,0.6-0.2,0.6-0.5c0-0.4-0.4-0.7-1.2-0.7c-0.9,0-1.6,0.4-1.8,1.1
			l-1.7-1c0.5-1.2,1.9-2,3.7-2c2.2,0,3.4,1.1,3.4,2.9l-0.1,2.9c0,0.4,0.2,0.6,0.6,0.5v1.7c-0.3,0.1-0.5,0.1-0.8,0.1
			c-1.2,0-1.8-0.5-1.9-1.8h0c-0.3,1.1-1.3,1.8-2.6,1.8C1113.3,4632.6,1112.3,4631.7,1112.3,4630.3z M1115.6,4630.6
			c0.9,0,1.8-0.8,1.9-1.6l0-0.7c-0.1,0.2-0.4,0.4-0.8,0.5l-0.7,0.2c-0.9,0.2-1.2,0.5-1.2,0.9
			C1114.7,4630.4,1115,4630.6,1115.6,4630.6z"/>
		<path d="M1121.2,4630.3c0-1.4,1-2.3,3.3-2.7l1.2-0.2c0.5-0.1,0.6-0.2,0.6-0.5c0-0.4-0.4-0.7-1.2-0.7c-0.9,0-1.6,0.4-1.8,1.1
			l-1.7-1c0.5-1.2,1.9-2,3.7-2c2.2,0,3.4,1.1,3.4,2.9l-0.1,2.9c0,0.4,0.2,0.6,0.6,0.5v1.7c-0.3,0.1-0.5,0.1-0.8,0.1
			c-1.2,0-1.8-0.5-1.9-1.8h0c-0.3,1.1-1.3,1.8-2.6,1.8C1122.2,4632.6,1121.2,4631.7,1121.2,4630.3z M1124.5,4630.6
			c0.9,0,1.8-0.8,1.9-1.6l0-0.7c-0.1,0.2-0.4,0.4-0.8,0.5l-0.7,0.2c-0.9,0.2-1.2,0.5-1.2,0.9
			C1123.6,4630.4,1123.9,4630.6,1124.5,4630.6z"/>
		<path d="M1130.3,4624.6h2.4v1h0c0.4-0.7,1.2-1.2,2.3-1.2c1.3,0,2.6,0.7,2.6,2.6v5.4h-2.4v-4.8c0-0.7-0.4-1.2-1.1-1.2
			c-0.8,0-1.4,0.5-1.4,1.9v4.1h-2.4V4624.6z"/>
		<path d="M1138.7,4628.4c0-3,1.8-4.1,3.3-4.1c1.1,0,1.8,0.5,2.3,1.2h0v-4.6h2.4v11.4h-2.4v-0.9h0c-0.4,0.6-1.1,1.2-2.2,1.2
			C1140.6,4632.6,1138.7,4631.5,1138.7,4628.4z M1142.7,4630.6c1,0,1.6-0.8,1.6-2.2c0-1.4-0.6-2.1-1.6-2.1c-0.9,0-1.6,0.7-1.6,2.1
			C1141.1,4629.9,1141.7,4630.6,1142.7,4630.6z"/>
	</g>
	<g class="st2">
		<path d="M1082.2,4641.8h5.5v1h-4.5v2.7h4v1h-4v2.9h4.5v1h-5.5V4641.8z"/>
		<path d="M1090.9,4647.4l-2.1-2.8h1.2l1.5,2.1h0l1.5-2.1h1.2l-2,2.8l2.1,3h-1.2l-1.5-2.2h0l-1.6,2.2h-1.2L1090.9,4647.4z"/>
		<path d="M1094.8,4647.5c0-2.1,1.3-3.1,2.8-3.1c1.1,0,2,0.6,2.4,1.7l-1,0.3c-0.2-0.8-0.7-1.2-1.4-1.2c-0.9,0-1.7,0.6-1.7,2.2
			c0,1.6,0.9,2.2,1.8,2.2c0.6,0,1.2-0.3,1.4-1.3l1.1,0c-0.2,1.3-1.2,2.1-2.5,2.1C1096.1,4650.5,1094.8,4649.5,1094.8,4647.5z"/>
		<path d="M1101.4,4641.8h1v8.6h-1V4641.8z"/>
		<path d="M1104,4649.7c0-0.4,0.3-0.8,0.8-0.8c0.5,0,0.8,0.4,0.8,0.8c0,0.4-0.3,0.8-0.8,0.8C1104.3,4650.5,1104,4650.1,1104,4649.7z
			"/>
		<path d="M1110.6,4641.8h3.3c1.5,0,2.4,0.9,2.4,2.2c0,0.9-0.6,1.6-1.2,1.8v0c0.9,0.3,1.5,1,1.5,2.2c0,1.4-0.9,2.4-2.6,2.4h-3.4
			V4641.8z M1113.9,4645.4c0.7,0,1.3-0.5,1.3-1.3c0-0.8-0.5-1.4-1.2-1.4h-2.3v2.7H1113.9z M1114.2,4649.3c0.8,0,1.4-0.6,1.4-1.5
			c0-1-0.6-1.6-1.4-1.6h-2.4v3H1114.2z"/>
		<path d="M1120.1,4642.7h-2.9v-1h6.8v1h-2.9v7.6h-1.1V4642.7z"/>
		<path d="M1124.8,4641.8h1.1l2.1,7h0l2.1-7h0.9l2.1,7h0l2-7h1.1l-2.6,8.6h-1.1l-2-7h0l-2,7h-1.1L1124.8,4641.8z"/>
	</g>
</g>
</svg>
