<svg xmlns="http://www.w3.org/2000/svg" width="12" height="20" viewBox="0 0 12 20"><defs><style>.a{fill:#291d18;fill-rule:evenodd;}</style></defs><g transform="translate(-6 -2)"><path class="a" d="M8.5,2h7A2.5,2.5,0,0,1,18,4.5v15A2.5,2.5,0,0,1,15.5,22h-7A2.5,2.5,0,0,1,6,19.5V4.5A2.5,2.5,0,0,1,8.5,2Zm7,2h-7a.5.5,0,0,0-.5.5v15a.5.5,0,0,0,.5.5h7a.5.5,0,0,0,.5-.5V4.5A.5.5,0,0,0,15.5,4ZM13.954,6.028a1,1,0,0,1,.117,1.993l-.117.007H9.984a1,1,0,0,1-.117-1.993l.117-.007ZM12,19a1,1,0,1,0-1-1A1,1,0,0,0,12,19Z"/></g></svg>