<svg xmlns="http://www.w3.org/2000/svg" width="20" height="18.372" viewBox="0 0 20 18.372"><defs><style>.a{fill:#291d18;fill-rule:evenodd;}</style></defs><path class="a" d="M12,3C6.513,3,2,6.761,2,11.5l.006.293A7.8,7.8,0,0,0,4.374,17l.143.139L3.442,20.018l-.033.105a1,1,0,0,0,1.4,1.148l3.753-1.787.417.122A11.659,11.659,0,0,0,12,20c5.487,0,10-3.761,10-8.5S17.487,3,12,3Zm0,2c4.455,0,8,2.955,8,6.5S16.455,18,12,18a9.541,9.541,0,0,1-3.174-.534L8.7,17.431a1,1,0,0,0-.636.076l-1.881.9.449-1.2a1,1,0,0,0-.3-1.124A5.93,5.93,0,0,1,4,11.5C4,7.955,7.545,5,12,5Z" transform="translate(-2 -3)"/></svg>