<?xml version="1.0" encoding="utf-8"?>
<!-- Generator: Adobe Illustrator 27.6.0, SVG Export Plug-In . SVG Version: 6.00 Build 0)  -->
<svg version="1.1" id="Layer_1" xmlns="http://www.w3.org/2000/svg" xmlns:xlink="http://www.w3.org/1999/xlink" x="0px" y="0px"
	 viewBox="0 0 109 97.6" style="enable-background:new 0 0 109 97.6;" xml:space="preserve">
<style type="text/css">
	.st0{fill:#291D18;}
	.st1{fill:#707070;}
	.st2{fill:#1F9D91;}
</style>
<g transform="translate(-268.983 -1756.5)">
	<path class="st0" d="M311.1,1838.6c0-4.7,3.1-6.8,6.4-6.8c2.7-0.1,5.1,1.7,5.8,4.3l-2.9,0.7c-0.2-1.5-1.5-2.6-3-2.6
		c-1.7,0-3.3,1.2-3.3,4.3c0,3,1.6,4.2,3.6,4.2c1.9,0,3.2-1.2,3.2-2.5v-0.2h-3.3v-2.1h6v7h-2.1l-0.2-2.3l0,0
		c-0.7,1.7-2.3,2.7-4.1,2.6C314.6,1845.3,311.1,1843.6,311.1,1838.6z"/>
	<path class="st0" d="M325.6,1832.1h5.8c2.6,0,4.1,1.2,4.1,3.2c0,1.2-0.8,2.3-1.9,2.8v0.1c1.4,0.4,2.4,1.8,2.3,3.3
		c0,2.2-1.7,3.6-4.6,3.6h-5.8v-13H325.6z M331,1837.3c0.8,0.1,1.4-0.5,1.5-1.3c0,0,0-0.1,0-0.1c0.1-0.7-0.4-1.3-1.1-1.4
		c-0.1,0-0.2,0-0.3,0h-2.7v2.9L331,1837.3L331,1837.3z M331.4,1842.7c0.8,0,1.5-0.6,1.5-1.4c0-0.1,0-0.1,0-0.2
		c0.1-0.9-0.5-1.6-1.4-1.7c-0.1,0-0.1,0-0.2,0h-3v3.3L331.4,1842.7L331.4,1842.7z"/>
	<path class="st1" d="M373.7,1789.8c-4.1-9.7-11-18.1-19.7-24c-9-6.1-19.6-9.3-30.5-9.3c-7.3,0-14.5,1.4-21.2,4.3
		c-27.7,11.6-40.7,43.5-29.1,71.2c0,0.1,0,0.1,0.1,0.2c0.2,0.3,0.3,0.7,0.4,1l4.6-1.9c-11.2-24.9,0-54.2,24.9-65.4
		c24.9-11.2,54.2,0,65.4,24.9c9,20.1,3.7,43.8-13.2,58l3.3,3.8c3.8-3.2,7.1-6.9,9.9-11C379,1826.3,380.9,1806.8,373.7,1789.8z"/>
	<path class="st1" d="M288.9,1853.1l3.3-3.7c-5.9-4.8-10.7-11-13.8-18l-4.6,1.9C277.3,1841,282.4,1847.7,288.9,1853.1z"/>
	<path class="st0" d="M327.1,1807c0-1.7-0.9-3.2-2.9-3.2c-2.6,0-3.8,2.2-3.9,5.3l-4.3-1.2c0.4-4.6,3.1-8,8.4-8
		c5.1,0,7.6,3.2,7.6,6.8c0,4-3.4,7.9-8.8,12h8.8v4.3h-15.6v-3.3C324.4,1813.1,327.1,1810,327.1,1807z"/>
	<path class="st2" d="M287.9,1854.1l6.7-7.5c-5.3-4.6-9.6-10.3-12.4-16.8l-9.3,3.7C276.3,1841.4,281.4,1848.5,287.9,1854.1z"/>
</g>
</svg>
