<?xml version="1.0" encoding="utf-8"?>
<!-- Generator: Adobe Illustrator 27.6.0, SVG Export Plug-In . SVG Version: 6.00 Build 0)  -->
<svg version="1.1" id="Layer_1" xmlns="http://www.w3.org/2000/svg" xmlns:xlink="http://www.w3.org/1999/xlink" x="0px" y="0px"
	 viewBox="0 0 124.6 124.7" style="enable-background:new 0 0 124.6 124.7;" xml:space="preserve">
<style type="text/css">
	.st0{clip-path:url(#SVGID_00000062896852288381375760000014136048924486683291_);}
	.st1{fill:#FFC421;}
	.st2{enable-background:new    ;}
</style>
<g transform="translate(-262.87 -2202)">
	<g transform="translate(262.87 2202)">
		<g>
			<defs>
				<rect id="SVGID_1_" width="124.6" height="124.7"/>
			</defs>
			<clipPath id="SVGID_00000009577960847931775760000007964946565461310123_">
				<use xlink:href="#SVGID_1_"  style="overflow:visible;"/>
			</clipPath>
			<g style="clip-path:url(#SVGID_00000009577960847931775760000007964946565461310123_);">
				<path class="st1" d="M122.2,22.2c-1.2-10.3-9.2-18.4-19.5-19.6C89.3,0.8,75.8-0.1,62.3,0C48.8-0.1,35.3,0.8,22,2.5
					C11.7,3.8,3.7,11.9,2.5,22.2C0.9,35.5,0,48.9,0,62.3c0,13.4,0.9,26.8,2.5,40.2c1.2,10.3,9.2,18.4,19.5,19.6
					c13.4,1.8,26.9,2.6,40.4,2.5c13.5,0.1,27-0.8,40.4-2.5c10.2-1.3,18.3-9.4,19.5-19.6c1.6-13.3,2.5-26.7,2.5-40.2
					C124.6,48.9,123.8,35.5,122.2,22.2"/>
			</g>
		</g>
	</g>
	<g class="st2">
		<path d="M276.7,2233.7h3.6c1.1-5,4.7-7.5,8.5-7.5c4.2,0,6.8,2.9,7.8,6.7l-2.6,0.9c-0.8-3.5-2.8-5.2-5.2-5.2
			c-2.7,0-4.9,1.7-5.8,5.1h9.2l-0.5,2.3h-9c0,0.4,0,0.8,0,1.2c0,0.3,0,0.7,0,1h8.3l-0.5,2.3h-7.5c0.9,3.6,3.2,5.5,6,5.5
			c2.7,0,4.6-1.7,5-4.7l2.6,0.5c-0.8,3.8-3.3,6.6-7.6,6.6c-4,0-7.6-2.6-8.7-7.8h-4.4v-2.3h4.2l0-1c0-0.4,0-0.8,0-1.2h-3.2V2233.7z"
			/>
	</g>
	<g class="st2">
		<path d="M319.4,2237.3c0-3-1.6-5.6-5.2-5.6c-4.5,0-6.7,3.9-6.8,9.2l-7.5-2.1c0.8-8.1,5.5-14,14.6-14c8.8,0,13.4,5.6,13.4,11.9
			c0,6.9-5.9,13.9-15.3,21.1H328v7.6h-27.4v-5.7C314.8,2248,319.4,2242.5,319.4,2237.3z"/>
		<path d="M332.3,2245.8c0-12.9,5.2-21,15.9-21c10.8,0,15.9,8.2,15.9,21c0,12.9-5.2,20.2-15.9,20.2
			C337.6,2266.1,332.3,2258.8,332.3,2245.8z M348.3,2259.1c5,0,7.4-3.8,7.4-13.3c0-9.6-2.5-13.9-7.4-13.9c-5.1,0-7.4,4.9-7.4,13.8
			C340.9,2255.2,343.2,2259.1,348.3,2259.1z"/>
	</g>
	<g class="st2">
		<path d="M287.5,2280.6h2.4v1h0c0.4-0.6,1.1-1.2,2.2-1.2c1.4,0,3.4,1,3.4,4.1c0,3-1.9,4.1-3.4,4.1c-1,0-1.7-0.5-2.2-1.1h0v4.1h-2.4
			V2280.6z M291.4,2286.6c0.9,0,1.6-0.7,1.6-2.2c0-1.5-0.7-2.1-1.6-2.1c-0.9,0-1.6,0.7-1.6,2.1
			C289.8,2285.8,290.4,2286.6,291.4,2286.6z"/>
		<path d="M296.2,2284.5c0-2.7,1.8-4.2,4-4.2c2.5,0,3.8,1.5,3.8,4v0.8h-5.3c0.1,0.9,0.8,1.5,1.7,1.5c0.8,0,1.3-0.5,1.5-1.1l1.9,1
			c-0.5,1.1-1.7,2.1-3.6,2.1C298.2,2288.6,296.2,2287.4,296.2,2284.5z M301.5,2283.6c0-1-0.4-1.6-1.3-1.6c-0.9,0-1.4,0.6-1.4,1.6
			H301.5z"/>
		<path d="M305.2,2280.6h2.4v1.1h0c0.4-0.7,1-1.3,1.8-1.3c0.4,0,0.8,0.1,1.2,0.3l-0.4,2.2c-0.3-0.1-0.7-0.2-1-0.2
			c-1.1,0-1.5,0.9-1.5,2.4v3.3h-2.4V2280.6z"/>
		<path d="M315.6,2280.6h2.4v1h0c0.4-0.6,1-1.2,2.1-1.2c0.8,0,1.6,0.3,2.1,1.3c0.5-0.7,1.2-1.3,2.4-1.3c1,0,2.7,0.4,2.7,3v5h-2.4
			v-4.8c0-0.7-0.3-1.2-0.9-1.2c-1,0-1.3,1-1.3,1.8v4.2h-2.4v-4.8c0-0.7-0.3-1.2-1-1.2c-1,0-1.3,0.9-1.3,1.8v4.2h-2.4V2280.6z"/>
		<path d="M328.6,2286.3c0-1.4,1-2.3,3.3-2.7l1.2-0.2c0.5-0.1,0.6-0.2,0.6-0.5c0-0.4-0.4-0.7-1.2-0.7c-0.9,0-1.6,0.4-1.8,1.1l-1.7-1
			c0.5-1.2,1.9-2,3.7-2c2.2,0,3.4,1.1,3.4,2.9l-0.1,2.9c0,0.4,0.2,0.6,0.6,0.5v1.7c-0.3,0.1-0.5,0.1-0.8,0.1c-1.2,0-1.8-0.5-1.9-1.8
			h0c-0.3,1.1-1.3,1.8-2.6,1.8C329.6,2288.6,328.6,2287.7,328.6,2286.3z M331.8,2286.6c0.9,0,1.8-0.8,1.9-1.6l0-0.7
			c-0.1,0.2-0.4,0.4-0.8,0.5l-0.7,0.2c-0.9,0.2-1.2,0.5-1.2,0.9C330.9,2286.4,331.2,2286.6,331.8,2286.6z"/>
		<path d="M337.5,2286.3c0-1.4,1-2.3,3.3-2.7l1.2-0.2c0.5-0.1,0.6-0.2,0.6-0.5c0-0.4-0.4-0.7-1.2-0.7c-0.9,0-1.6,0.4-1.8,1.1l-1.7-1
			c0.5-1.2,1.9-2,3.7-2c2.2,0,3.4,1.1,3.4,2.9l-0.1,2.9c0,0.4,0.2,0.6,0.6,0.5v1.7c-0.3,0.1-0.5,0.1-0.8,0.1c-1.2,0-1.8-0.5-1.9-1.8
			h0c-0.3,1.1-1.3,1.8-2.6,1.8C338.5,2288.6,337.5,2287.7,337.5,2286.3z M340.7,2286.6c0.9,0,1.8-0.8,1.9-1.6l0-0.7
			c-0.1,0.2-0.4,0.4-0.8,0.5l-0.7,0.2c-0.9,0.2-1.2,0.5-1.2,0.9C339.8,2286.4,340.2,2286.6,340.7,2286.6z"/>
		<path d="M346.6,2280.6h2.4v1h0c0.4-0.7,1.2-1.2,2.3-1.2c1.3,0,2.6,0.7,2.6,2.6v5.4h-2.4v-4.8c0-0.7-0.4-1.2-1.1-1.2
			c-0.8,0-1.4,0.5-1.4,1.9v4.1h-2.4V2280.6z"/>
		<path d="M354.9,2284.4c0-3,1.8-4.1,3.3-4.1c1.1,0,1.8,0.5,2.3,1.2h0v-4.6h2.4v11.4h-2.4v-0.9h0c-0.4,0.6-1.1,1.2-2.2,1.2
			C356.9,2288.6,354.9,2287.5,354.9,2284.4z M358.9,2286.6c1,0,1.6-0.8,1.6-2.2c0-1.4-0.6-2.1-1.6-2.1c-0.9,0-1.6,0.7-1.6,2.1
			C357.3,2285.9,358,2286.6,358.9,2286.6z"/>
	</g>
	<g class="st2">
		<path d="M298.5,2297.8h5.5v1h-4.5v2.7h4v1h-4v2.9h4.5v1h-5.5V2297.8z"/>
		<path d="M307.2,2303.4l-2.1-2.8h1.2l1.5,2.1h0l1.5-2.1h1.2l-2,2.8l2.1,3h-1.2l-1.5-2.2h0l-1.6,2.2H305L307.2,2303.4z"/>
		<path d="M311.1,2303.5c0-2.1,1.3-3.1,2.8-3.1c1.1,0,2,0.6,2.4,1.7l-1,0.3c-0.2-0.8-0.7-1.2-1.4-1.2c-0.9,0-1.7,0.6-1.7,2.2
			c0,1.6,0.9,2.2,1.8,2.2c0.6,0,1.2-0.3,1.4-1.3l1.1,0c-0.2,1.3-1.2,2.1-2.5,2.1C312.4,2306.5,311.1,2305.5,311.1,2303.5z"/>
		<path d="M317.7,2297.8h1v8.6h-1V2297.8z"/>
		<path d="M320.3,2305.7c0-0.4,0.3-0.8,0.8-0.8c0.5,0,0.8,0.4,0.8,0.8c0,0.4-0.3,0.8-0.8,0.8
			C320.6,2306.5,320.3,2306.1,320.3,2305.7z"/>
		<path d="M326.9,2297.8h3.3c1.5,0,2.4,0.9,2.4,2.2c0,0.9-0.6,1.6-1.2,1.8v0c0.9,0.3,1.5,1,1.5,2.2c0,1.4-0.9,2.4-2.6,2.4h-3.4
			V2297.8z M330.2,2301.4c0.7,0,1.3-0.5,1.3-1.3c0-0.8-0.5-1.4-1.2-1.4H328v2.7H330.2z M330.4,2305.3c0.8,0,1.4-0.6,1.4-1.5
			c0-1-0.6-1.6-1.4-1.6H328v3H330.4z"/>
		<path d="M336.4,2298.7h-2.9v-1h6.8v1h-2.9v7.6h-1.1V2298.7z"/>
		<path d="M341,2297.8h1.1l2.1,7h0l2.1-7h0.9l2.1,7h0l2-7h1.1l-2.6,8.6h-1.1l-2-7h0l-2,7h-1.1L341,2297.8z"/>
	</g>
</g>
</svg>
