<?xml version="1.0" encoding="utf-8"?>
<!-- Generator: Adobe Illustrator 27.6.0, SVG Export Plug-In . SVG Version: 6.00 Build 0)  -->
<svg version="1.1" id="Layer_1" xmlns="http://www.w3.org/2000/svg" xmlns:xlink="http://www.w3.org/1999/xlink" x="0px" y="0px"
	 viewBox="0 0 124.6 124.7" style="enable-background:new 0 0 124.6 124.7;" xml:space="preserve">
<style type="text/css">
	.st0{clip-path:url(#SVGID_00000101783167344285560020000001827549936176761786_);}
	.st1{fill:#FFC421;}
	.st2{enable-background:new    ;}
</style>
<g id="Group_1205" transform="translate(-262.869 -2178)">
	<g id="Group_1198" transform="translate(262.869 2178)">
		<g>
			<g>
				<defs>
					<rect id="SVGID_1_" width="124.6" height="124.7"/>
				</defs>
				<clipPath id="SVGID_00000165234626611152831860000009073611234285116295_">
					<use xlink:href="#SVGID_1_"  style="overflow:visible;"/>
				</clipPath>
				<g id="Group_1192" style="clip-path:url(#SVGID_00000165234626611152831860000009073611234285116295_);">
					<path id="Path_1399" class="st1" d="M122.2,22.2C121,11.9,113,3.8,102.7,2.6C89.3,0.8,75.8-0.1,62.3,0
						C48.8-0.1,35.3,0.8,22,2.5C11.7,3.8,3.7,11.9,2.5,22.2C0.9,35.5,0,48.9,0,62.3s0.9,26.8,2.5,40.2c1.2,10.3,9.2,18.4,19.5,19.6
						c13.4,1.8,26.9,2.6,40.4,2.5c13.5,0.1,27-0.8,40.4-2.5c10.2-1.3,18.3-9.4,19.5-19.6c1.6-13.3,2.5-26.7,2.5-40.2
						C124.6,48.9,123.8,35.5,122.2,22.2"/>
				</g>
			</g>
		</g>
	</g>
	<g class="st2">
		<path d="M280.3,2209.7h3.6c1.1-5,4.7-7.5,8.5-7.5c4.2,0,6.8,2.9,7.8,6.7l-2.6,0.9c-0.8-3.5-2.8-5.2-5.2-5.2
			c-2.7,0-4.9,1.7-5.8,5.1h9.2l-0.5,2.3h-9c0,0.4,0,0.8,0,1.2c0,0.3,0,0.7,0,1h8.3l-0.5,2.3h-7.5c0.9,3.6,3.2,5.5,6,5.5
			c2.7,0,4.6-1.7,5-4.7l2.6,0.5c-0.8,3.8-3.3,6.6-7.6,6.6c-4,0-7.6-2.6-8.7-7.8h-4.4v-2.3h4.2v-1c0-0.4,0-0.8,0-1.2h-3.2v-2.4H280.3
			z"/>
	</g>
	<g class="st2">
		<path d="M306.3,2216H304v-7.8h1.5c4.3,0,7.4-2.8,8.1-6.6h7.8v39.8H313v-28.9C311.7,2214.7,308.7,2216,306.3,2216z"/>
		<path d="M328.7,2221.8c0-12.9,5.2-21,15.9-21c10.8,0,15.9,8.2,15.9,21c0,12.9-5.2,20.2-15.9,20.2
			C333.9,2242.1,328.7,2234.8,328.7,2221.8z M344.6,2235.1c5,0,7.4-3.8,7.4-13.3c0-9.6-2.5-13.9-7.4-13.9c-5.1,0-7.4,4.9-7.4,13.8
			C337.2,2231.2,339.5,2235.1,344.6,2235.1z"/>
	</g>
	<g>
		<g class="st2">
			<path d="M287.5,2256.6c0.8,0,1.6,0,2.4,0c0,0.3,0,0.6,0,1l0,0c0.4-0.6,1.1-1.2,2.2-1.2c1.4,0,3.4,1,3.4,4.1c0,3-1.9,4.1-3.4,4.1
				c-1,0-1.7-0.5-2.2-1.1l0,0c0,1.4,0,2.7,0,4.1c-0.8,0-1.6,0-2.4,0C287.5,2263.9,287.5,2260.2,287.5,2256.6z M291.4,2262.6
				c0.9,0,1.6-0.7,1.6-2.2s-0.7-2.1-1.6-2.1s-1.6,0.7-1.6,2.1C289.8,2261.8,290.4,2262.6,291.4,2262.6z"/>
			<path d="M296.2,2260.5c0-2.7,1.8-4.2,4-4.2c2.5,0,3.8,1.5,3.8,4c0,0.3,0,0.5,0,0.8c-1.8,0-3.6,0-5.3,0c0.1,0.9,0.8,1.5,1.7,1.5
				c0.8,0,1.3-0.5,1.5-1.1c0.6,0.3,1.3,0.6,1.9,1c-0.5,1.1-1.7,2.1-3.6,2.1C298.2,2264.6,296.2,2263.4,296.2,2260.5z M301.5,2259.6
				c0-1-0.4-1.6-1.3-1.6s-1.4,0.6-1.4,1.6C299.6,2259.6,300.6,2259.6,301.5,2259.6z"/>
			<path d="M305.2,2256.6c0.8,0,1.6,0,2.4,0c0,0.4,0,0.7,0,1.1l0,0c0.4-0.7,1-1.3,1.8-1.3c0.4,0,0.8,0.1,1.2,0.3
				c-0.1,0.7-0.3,1.5-0.4,2.2c-0.3-0.1-0.7-0.2-1-0.2c-1.1,0-1.5,0.9-1.5,2.4c0,1.1,0,2.2,0,3.3c-0.8,0-1.6,0-2.4,0
				C305.2,2261.7,305.2,2259.2,305.2,2256.6z"/>
			<path d="M315.6,2256.6c0.8,0,1.6,0,2.4,0c0,0.3,0,0.7,0,1l0,0c0.4-0.6,1-1.2,2.1-1.2c0.8,0,1.6,0.3,2.1,1.3
				c0.5-0.7,1.2-1.3,2.4-1.3c1,0,2.7,0.4,2.7,3c0,1.7,0,3.3,0,5c-0.8,0-1.6,0-2.4,0c0-1.6,0-3.2,0-4.8c0-0.7-0.3-1.2-0.9-1.2
				c-1,0-1.3,1-1.3,1.8c0,1.4,0,2.8,0,4.2c-0.8,0-1.6,0-2.4,0c0-1.6,0-3.2,0-4.8c0-0.7-0.3-1.2-1-1.2c-1,0-1.3,0.9-1.3,1.8
				c0,1.4,0,2.8,0,4.2c-0.8,0-1.6,0-2.4,0C315.6,2261.7,315.6,2259.2,315.6,2256.6z"/>
			<path d="M328.6,2262.3c0-1.4,1-2.3,3.3-2.7c0.4-0.1,0.8-0.1,1.2-0.2c0.5-0.1,0.6-0.2,0.6-0.5c0-0.4-0.4-0.7-1.2-0.7
				c-0.9,0-1.6,0.4-1.8,1.1c-0.6-0.3-1.2-0.7-1.7-1c0.5-1.2,1.9-2,3.7-2c2.2,0,3.4,1.1,3.4,2.9c0,1-0.1,2-0.1,2.9
				c0,0.4,0.2,0.6,0.6,0.5c0,0.6,0,1.2,0,1.7c-0.3,0.1-0.5,0.1-0.8,0.1c-1.2,0-1.8-0.5-1.9-1.8l0,0c-0.3,1.1-1.3,1.8-2.6,1.8
				C329.6,2264.6,328.6,2263.7,328.6,2262.3z M331.8,2262.6c0.9,0,1.8-0.8,1.9-1.6c0-0.2,0-0.4,0-0.7c-0.1,0.2-0.4,0.4-0.8,0.5
				c-0.2,0.1-0.5,0.1-0.7,0.2c-0.9,0.2-1.2,0.5-1.2,0.9C330.9,2262.4,331.2,2262.6,331.8,2262.6z"/>
			<path d="M337.5,2262.3c0-1.4,1-2.3,3.3-2.7c0.4-0.1,0.8-0.1,1.2-0.2c0.5-0.1,0.6-0.2,0.6-0.5c0-0.4-0.4-0.7-1.2-0.7
				c-0.9,0-1.6,0.4-1.8,1.1c-0.6-0.3-1.2-0.7-1.7-1c0.5-1.2,1.9-2,3.7-2c2.2,0,3.4,1.1,3.4,2.9c0,1-0.1,2-0.1,2.9
				c0,0.4,0.2,0.6,0.6,0.5c0,0.6,0,1.2,0,1.7c-0.3,0.1-0.5,0.1-0.8,0.1c-1.2,0-1.8-0.5-1.9-1.8l0,0c-0.3,1.1-1.3,1.8-2.6,1.8
				C338.5,2264.6,337.5,2263.7,337.5,2262.3z M340.7,2262.6c0.9,0,1.8-0.8,1.9-1.6c0-0.2,0-0.4,0-0.7c-0.1,0.2-0.4,0.4-0.8,0.5
				c-0.2,0.1-0.5,0.1-0.7,0.2c-0.9,0.2-1.2,0.5-1.2,0.9C339.8,2262.4,340.2,2262.6,340.7,2262.6z"/>
			<path d="M346.6,2256.6c0.8,0,1.6,0,2.4,0c0,0.3,0,0.7,0,1l0,0c0.4-0.7,1.2-1.2,2.3-1.2c1.3,0,2.6,0.7,2.6,2.6c0,1.8,0,3.6,0,5.4
				c-0.8,0-1.6,0-2.4,0c0-1.6,0-3.2,0-4.8c0-0.7-0.4-1.2-1.1-1.2c-0.8,0-1.4,0.5-1.4,1.9s0,2.7,0,4.1c-0.8,0-1.6,0-2.4,0
				C346.6,2261.7,346.6,2259.2,346.6,2256.6z"/>
			<path d="M354.9,2260.4c0-3,1.8-4.1,3.3-4.1c1.1,0,1.8,0.5,2.3,1.2l0,0c0-1.5,0-3.1,0-4.6c0.8,0,1.6,0,2.4,0c0,3.8,0,7.6,0,11.4
				c-0.8,0-1.6,0-2.4,0c0-0.3,0-0.6,0-0.9l0,0c-0.4,0.6-1.1,1.2-2.2,1.2C356.9,2264.6,354.9,2263.5,354.9,2260.4z M358.9,2262.6
				c1,0,1.6-0.8,1.6-2.2s-0.6-2.1-1.6-2.1c-0.9,0-1.6,0.7-1.6,2.1C357.3,2261.9,358,2262.6,358.9,2262.6z"/>
		</g>
		<g class="st2">
			<path d="M298.5,2273.8c1.8,0,3.7,0,5.5,0c0,0.3,0,0.7,0,1c-1.5,0-3,0-4.5,0c0,0.9,0,1.8,0,2.7c1.3,0,2.7,0,4,0c0,0.3,0,0.6,0,1
				c-1.3,0-2.7,0-4,0c0,1,0,1.9,0,2.9c1.5,0,3,0,4.5,0c0,0.3,0,0.7,0,1c-1.8,0-3.7,0-5.5,0C298.5,2279.5,298.5,2276.6,298.5,2273.8z
				"/>
			<path d="M307.2,2279.4c-0.7-0.9-1.4-1.9-2.1-2.8c0.4,0,0.8,0,1.2,0c0.5,0.7,1,1.4,1.5,2.1l0,0c0.5-0.7,1-1.4,1.5-2.1
				c0.4,0,0.8,0,1.2,0c-0.7,0.9-1.4,1.9-2,2.8c0.7,1,1.4,2,2.1,3c-0.4,0-0.8,0-1.2,0c-0.5-0.7-1-1.5-1.5-2.2l0,0
				c-0.5,0.7-1.1,1.5-1.6,2.2c-0.4,0-0.8,0-1.2,0C305.8,2281.4,306.5,2280.4,307.2,2279.4z"/>
			<path d="M311.1,2279.5c0-2.1,1.3-3.1,2.8-3.1c1.1,0,2,0.6,2.4,1.7c-0.3,0.1-0.7,0.2-1,0.3c-0.2-0.8-0.7-1.2-1.4-1.2
				c-0.9,0-1.7,0.6-1.7,2.2c0,1.6,0.9,2.2,1.8,2.2c0.6,0,1.2-0.3,1.4-1.3c0.4,0,0.7,0,1.1,0c-0.2,1.3-1.2,2.1-2.5,2.1
				C312.4,2282.5,311.1,2281.5,311.1,2279.5z"/>
			<path d="M317.7,2273.8c0.3,0,0.7,0,1,0c0,2.9,0,5.7,0,8.6c-0.3,0-0.7,0-1,0C317.7,2279.5,317.7,2276.6,317.7,2273.8z"/>
			<path d="M320.3,2281.7c0-0.4,0.3-0.8,0.8-0.8s0.8,0.4,0.8,0.8c0,0.4-0.3,0.8-0.8,0.8C320.6,2282.5,320.3,2282.1,320.3,2281.7z"/>
			<path d="M326.9,2273.8c1.1,0,2.2,0,3.3,0c1.5,0,2.4,0.9,2.4,2.2c0,0.9-0.6,1.6-1.2,1.8l0,0c0.9,0.3,1.5,1,1.5,2.2
				c0,1.4-0.9,2.4-2.6,2.4c-1.1,0-2.3,0-3.4,0C326.9,2279.5,326.9,2276.6,326.9,2273.8z M330.2,2277.4c0.7,0,1.3-0.5,1.3-1.3
				s-0.5-1.4-1.2-1.4c-0.8,0-1.5,0-2.3,0c0,0.9,0,1.8,0,2.7C328.7,2277.4,329.4,2277.4,330.2,2277.4z M330.4,2281.3
				c0.8,0,1.4-0.6,1.4-1.5c0-1-0.6-1.6-1.4-1.6s-1.6,0-2.4,0c0,1,0,2,0,3C328.8,2281.3,329.6,2281.3,330.4,2281.3z"/>
			<path d="M336.4,2274.7c-1,0-1.9,0-2.9,0c0-0.3,0-0.7,0-1c2.3,0,4.5,0,6.8,0c0,0.3,0,0.7,0,1c-1,0-1.9,0-2.9,0c0,2.5,0,5.1,0,7.6
				c-0.4,0-0.7,0-1.1,0C336.4,2279.8,336.4,2277.3,336.4,2274.7z"/>
			<path d="M341,2273.8c0.4,0,0.7,0,1.1,0c0.7,2.3,1.4,4.7,2.1,7l0,0c0.7-2.3,1.4-4.7,2.1-7c0.3,0,0.6,0,0.9,0
				c0.7,2.3,1.4,4.7,2.1,7l0,0c0.7-2.3,1.4-4.7,2-7c0.4,0,0.7,0,1.1,0c-0.9,2.9-1.7,5.7-2.6,8.6c-0.4,0-0.7,0-1.1,0
				c-0.7-2.3-1.3-4.7-2-7l0,0c-0.7,2.3-1.4,4.7-2,7c-0.4,0-0.7,0-1.1,0C342.7,2279.5,341.9,2276.6,341,2273.8z"/>
		</g>
	</g>
</g>
</svg>
