<?xml version="1.0" encoding="utf-8"?>
<!-- Generator: Adobe Illustrator 27.6.0, SVG Export Plug-In . SVG Version: 6.00 Build 0)  -->
<svg version="1.1" id="Layer_1" xmlns="http://www.w3.org/2000/svg" xmlns:xlink="http://www.w3.org/1999/xlink" x="0px" y="0px"
	 viewBox="0 0 109.8 97.6" style="enable-background:new 0 0 109.8 97.6;" xml:space="preserve">
<style type="text/css">
	.st0{fill:#707070;}
	.st1{enable-background:new    ;}
	.st2{fill:#291D18;}
	.st3{fill:#1F9D91;}
</style>
<g transform="translate(-31.188 -21.7)">
	<path class="st0" d="M136.7,55c-4.1-9.7-11-18.1-19.7-24c-9-6.1-19.6-9.3-30.5-9.3c-7.3,0-14.5,1.4-21.2,4.3
		c-9.7,4.1-18.1,11-24,19.7c-0.2,0.3-0.3,0.5-0.5,0.8l4.2,2.7c14.9-22.9,45.5-29.5,68.5-14.6s29.5,45.5,14.6,68.5
		c-2.6,4.1-5.8,7.7-9.5,10.8l3.3,3.8c3.8-3.2,7.1-6.9,9.9-11C142,91.4,143.9,72,136.7,55z"/>
	<g class="st1">
		<path class="st2" d="M71.5,73.7h-1.3v-4.4H71c2.5,0,4.3-1.6,4.6-3.8h4.4v22.7h-4.7V71.7C74.6,73,72.8,73.7,71.5,73.7z"/>
		<path class="st2" d="M84.3,77.1c0-7.4,3-12,9.1-12c6.1,0,9.1,4.7,9.1,12c0,7.4-2.9,11.6-9.1,11.6C87.3,88.7,84.3,84.5,84.3,77.1z
			 M93.4,84.7c2.8,0,4.2-2.1,4.2-7.6c0-5.5-1.4-8-4.2-8c-2.9,0-4.2,2.8-4.2,7.9C89.2,82.4,90.5,84.7,93.4,84.7z"/>
	</g>
	<g class="st1">
		<path class="st2" d="M74.5,103.8c0-4.7,3.1-6.8,6.4-6.8c3.2,0,5,1.9,5.8,4.3l-2.9,0.7c-0.4-1.5-1.4-2.6-3-2.6
			c-1.7,0-3.3,1.2-3.3,4.3c0,3,1.6,4.2,3.6,4.2c1.9,0,3.2-1.2,3.2-2.5v-0.2H81v-2.1h6v7h-2.1l-0.2-2.3h0c-0.2,0.9-1.6,2.6-4.1,2.6
			C78,110.6,74.5,108.9,74.5,103.8z"/>
		<path class="st2" d="M89,97.4h5.8c2.6,0,4.1,1.2,4.1,3.2c0,1.2-0.7,2.2-1.9,2.8v0.1c1.7,0.6,2.3,1.9,2.3,3.3
			c0,2.2-1.7,3.6-4.6,3.6H89V97.4z M94.5,102.5c0.8,0,1.5-0.5,1.5-1.4c0-1-0.6-1.4-1.4-1.4h-2.7v2.9H94.5z M94.9,107.9
			c0.9,0,1.5-0.6,1.5-1.6c0-1.1-0.7-1.7-1.6-1.7h-3v3.3H94.9z"/>
	</g>
	<g transform="translate(397.188 -939)">
		<path class="st3" d="M-366,1015.2c0,16.6,7.2,32.3,19.8,43.1l6.7-7.5c-10.4-8.9-16.4-21.9-16.4-35.6c0-8.8,2.4-17.4,7.1-24.8
			l-8.3-5.5C-362.9,993.9-366,1004.5-366,1015.2z"/>
	</g>
</g>
</svg>
