<svg xmlns="http://www.w3.org/2000/svg" width="20" height="19.75" viewBox="0 0 20 19.75"><defs><style>.a{fill:#291d18;fill-rule:evenodd;}</style></defs><g transform="translate(-2 -2)"><path class="a" d="M4.25,9.75A7.75,7.75,0,1,1,13,17.436V19.75h8a1,1,0,0,1,.117,1.993L21,21.75H3a1,1,0,0,1-.117-1.993L3,19.75h8V17.436A7.751,7.751,0,0,1,4.25,9.75Zm9.6,5.972A6.251,6.251,0,0,0,16.583,14H14.732A13.582,13.582,0,0,1,13.849,15.722ZM15.282,12.5h2.332a6.208,6.208,0,0,0,.511-1.5H15.639A11.724,11.724,0,0,1,15.282,12.5ZM14.134,11a9.578,9.578,0,0,1-.4,1.5H10.267a9.584,9.584,0,0,1-.4-1.5Zm1.611-1.5h2.5A6.238,6.238,0,0,0,18,7.994V8H15.544A8.809,8.809,0,0,1,15.745,9.5ZM14.03,8a7.787,7.787,0,0,1,.215,1.5H9.755A7.793,7.793,0,0,1,9.97,8Zm1.089-1.5h2.22a6.266,6.266,0,0,0-3.49-2.722A14.3,14.3,0,0,1,15.119,6.5ZM10.151,3.778A6.266,6.266,0,0,0,6.66,6.5h2.22A14.3,14.3,0,0,1,10.151,3.778ZM10.456,6.5a12.612,12.612,0,0,1,.565-1.2l.156-.283a10.262,10.262,0,0,1,.789-1.2L12,3.771l.034.044A10.777,10.777,0,0,1,12.979,5.3a12.612,12.612,0,0,1,.565,1.2Zm-2,1.5H6V7.994A6.239,6.239,0,0,0,5.755,9.5h2.5A8.813,8.813,0,0,1,8.456,8Zm-.1,3H5.875a6.2,6.2,0,0,0,.511,1.5H8.718A11.726,11.726,0,0,1,8.361,11Zm.908,3H7.417a6.251,6.251,0,0,0,2.734,1.722A13.582,13.582,0,0,1,9.268,14Zm1.647,0q.052.1.105.2a10.768,10.768,0,0,0,.944,1.484l.036.043.187-.247a10.968,10.968,0,0,0,.635-1l.156-.283q.054-.1.105-.2Z"/></g></svg>