<?xml version="1.0" encoding="utf-8"?>
<!-- Generator: Adobe Illustrator 27.6.0, SVG Export Plug-In . SVG Version: 6.00 Build 0)  -->
<svg version="1.1" id="Layer_1" xmlns="http://www.w3.org/2000/svg" xmlns:xlink="http://www.w3.org/1999/xlink" x="0px" y="0px"
	 viewBox="0 0 109.8 97.4" style="enable-background:new 0 0 109.8 97.4;" xml:space="preserve">
<style type="text/css">
	.st0{fill:#707070;}
	.st1{fill:#1F9D91;}
	.st2{enable-background:new    ;}
	.st3{fill:#291D18;}
</style>
<g transform="translate(-271.1 -1782.5)">
	<path class="st0" d="M280.8,1817.6c10.7-25.2,39.7-36.9,64.9-26.3c25.2,10.7,36.9,39.7,26.3,64.9c-3,7.1-7.7,13.4-13.6,18.4
		l3.3,3.8c3.8-3.2,7.1-6.9,9.9-11c16.9-24.9,10.3-58.8-14.6-75.7c-9-6.1-19.7-9.4-30.6-9.3c-7.3,0-14.5,1.4-21.2,4.3
		c-27.7,11.7-40.7,43.7-29,71.4c3.4,8.1,8.8,15.3,15.6,20.9l3.3-3.7C278.1,1861.4,272.3,1837.9,280.8,1817.6z"/>
	<path class="st1" d="M271.1,1836.8c0,16.6,7.2,32.3,19.8,43.1l6.7-7.5c-17.6-15.1-21.6-40.7-9.3-60.4l-8.3-5.5
		C274.2,1815.5,271.1,1826.1,271.1,1836.8z"/>
	<g class="st2">
		<path class="st3" d="M319.1,1806.9h-4.3v-1.5H325v1.5h-4.3v11.4h-1.6V1806.9z"/>
		<path class="st3" d="M324.3,1814c0-3.1,2-4.6,4.1-4.6c2.2,0,4.2,1.5,4.2,4.6c0,3-2,4.6-4.2,4.6
			C326.2,1818.6,324.3,1817.1,324.3,1814z M328.4,1817.3c1.4,0,2.6-1,2.6-3.3c0-2.4-1.3-3.3-2.6-3.3c-1.4,0-2.6,0.9-2.6,3.2
			C325.8,1816.3,327,1817.3,328.4,1817.3z"/>
		<path class="st3" d="M335.3,1816.6v-5.6h-1.7v-1.3h1.2c0.4,0,0.5-0.1,0.5-0.5v-1.8l1.5-0.3v2.6h2.1v1.3h-2.1v5.4
			c0,0.6,0.3,0.9,0.9,0.9c0.3,0,0.6-0.1,1-0.2l0.3,1.2c-0.4,0.2-0.9,0.3-1.5,0.3C336,1818.5,335.3,1817.7,335.3,1816.6z"/>
	</g>
	<g class="st2">
		<path class="st3" d="M305.6,1859.4h2.8l4,6l3.9-6h2.8v12.9h-2.8v-7.3v-1.2h-0.1l-3.6,5.2H312l-3.5-5.2h-0.1v1.2v7.4h-2.8V1859.4z"
			/>
		<path class="st3" d="M323.6,1871.2L323.6,1871.2l0,1.1H321v-12.9h2.7v5.2h0c0.5-0.8,1.4-1.3,2.6-1.3c1.6,0,3.7,1.2,3.7,4.6
			c0,3.5-2.3,4.6-3.8,4.6C324.9,1872.6,324.1,1871.9,323.6,1871.2z M325.4,1870.4c1,0,1.8-0.8,1.8-2.4c0-1.7-0.8-2.4-1.8-2.4
			c-1.1,0-1.8,0.8-1.8,2.4C323.6,1869.5,324.4,1870.4,325.4,1870.4z"/>
		<path class="st3" d="M331.2,1863.6h2.7v1.1h0c0.5-0.7,1.3-1.3,2.4-1.3c1.6,0,3.8,1.2,3.8,4.6c0,3.4-2.1,4.6-3.8,4.6
			c-1.2,0-2-0.6-2.5-1.3h0v4.6h-2.7V1863.6z M335.6,1870.4c1,0,1.8-0.8,1.8-2.4c0-1.7-0.7-2.4-1.8-2.4c-1.1,0-1.8,0.8-1.8,2.4
			C333.8,1869.5,334.5,1870.4,335.6,1870.4z"/>
		<path class="st3" d="M340.8,1870l2.6-0.8c0.2,0.8,0.6,1.4,1.6,1.4c0.7,0,1.1-0.3,1.1-0.8c0-0.5-0.4-0.8-2.1-1.2
			c-1.9-0.4-2.9-1.2-2.9-2.7c0-1.8,1.4-2.8,3.7-2.8c2,0,3.5,0.8,4,2.3l-2.5,0.8c-0.2-0.6-0.7-1.2-1.6-1.2c-0.6,0-1,0.3-1,0.7
			c0,0.5,0.3,0.8,2,1.1c2.1,0.4,3,1.2,3,2.7c0,1.8-1.5,3-3.8,3C342.7,1872.6,341.2,1871.7,340.8,1870z"/>
	</g>
	<g class="st2">
		<path class="st3" d="M311.4,1834.3h-1.3v-4.4h0.8c2.5,0,4.3-1.6,4.6-3.8h4.4v22.7h-4.7v-16.5
			C314.5,1833.6,312.8,1834.3,311.4,1834.3z"/>
		<path class="st3" d="M324.2,1837.7c0-7.4,3-12,9.1-12c6.1,0,9.1,4.7,9.1,12c0,7.4-2.9,11.6-9.1,11.6
			C327.2,1849.3,324.2,1845.1,324.2,1837.7z M333.3,1845.3c2.8,0,4.2-2.1,4.2-7.6c0-5.5-1.4-8-4.2-8c-2.9,0-4.2,2.8-4.2,7.9
			C329.1,1843,330.4,1845.3,333.3,1845.3z"/>
	</g>
</g>
</svg>
