<?xml version="1.0" encoding="utf-8"?>
<!-- Generator: Adobe Illustrator 27.6.0, SVG Export Plug-In . SVG Version: 6.00 Build 0)  -->
<svg version="1.1" id="Layer_1" xmlns="http://www.w3.org/2000/svg" xmlns:xlink="http://www.w3.org/1999/xlink" x="0px" y="0px"
	 viewBox="0 0 109.8 100.1" style="enable-background:new 0 0 109.8 100.1;" xml:space="preserve">
<style type="text/css">
	.st0{fill:#707070;}
	.st1{fill:#1F9D91;}
	.st2{fill:#291D18;}
</style>
<g transform="translate(-1060.6 -1779.8)">
	<path class="st0" d="M1070.3,1817.6c10.7-25.2,39.7-36.9,64.9-26.3c25.2,10.7,36.9,39.7,26.3,64.9c-3,7.1-7.7,13.4-13.6,18.4
		l3.3,3.8c3.8-3.2,7.1-6.9,9.9-11c16.9-24.9,10.3-58.8-14.6-75.7c-9-6.1-19.7-9.4-30.6-9.3c-7.3,0-14.5,1.4-21.2,4.3
		c-27.7,11.7-40.7,43.7-29,71.4c3.4,8.1,8.8,15.3,15.6,20.9l3.3-3.7C1067.6,1861.4,1061.8,1837.9,1070.3,1817.6z"/>
	<path class="st1" d="M1070.6,1836.8c0-25.9,21-47,46.9-47c0,0,0.1,0,0.1,0v-10c-31.4,0-57,25.4-57,56.9c0,16.6,7.2,32.4,19.8,43.2
		l6.7-7.5C1076.6,1863.6,1070.6,1850.5,1070.6,1836.8z"/>
	<path class="st2" d="M1108.7,1807h-4.3v-1.5h10.2v1.5h-4.3v11.4h-1.6L1108.7,1807L1108.7,1807z"/>
	<path class="st2" d="M1113.8,1814.1c0-3.1,2-4.6,4.1-4.6s4.2,1.5,4.2,4.6c0,3-2,4.6-4.2,4.6c-2.3-0.1-4.2-2-4.1-4.4
		C1113.8,1814.2,1113.8,1814.2,1113.8,1814.1z M1118,1817.3c1.4,0,2.6-1,2.6-3.3c0-2.4-1.3-3.3-2.6-3.3c-1.4,0-2.6,0.9-2.6,3.2
		C1115.4,1816.4,1116.6,1817.3,1118,1817.3L1118,1817.3z"/>
	<path class="st2" d="M1124.9,1816.6v-5.6h-1.7v-1.3h1.2c0.4,0,0.5-0.1,0.5-0.5v-1.8l1.5-0.3v2.6h2.1v1.3h-2.1v5.4
		c-0.1,0.4,0.2,0.8,0.7,0.9c0.1,0,0.1,0,0.2,0c0.3,0,0.7-0.1,1-0.2l0.3,1.2c-0.5,0.2-1,0.3-1.5,0.3c-1.1,0.1-2-0.6-2.2-1.7
		C1124.9,1816.8,1124.9,1816.7,1124.9,1816.6z"/>
	<path class="st2" d="M1095.2,1859.5h2.8l4,6l3.9-6h2.8v12.9h-2.8v-8.5h-0.1l-3.6,5.2h-0.6l-3.5-5.2h-0.1v8.6h-2.8L1095.2,1859.5
		L1095.2,1859.5z"/>
	<path class="st2" d="M1113.2,1871.3L1113.2,1871.3v1.1h-2.7v-12.9h2.7v5.2l0,0c0.6-0.9,1.6-1.4,2.6-1.3c1.6,0,3.7,1.2,3.7,4.6
		c0,3.5-2.3,4.6-3.8,4.6C1114.7,1872.6,1113.8,1872.1,1113.2,1871.3z M1115,1870.4c1,0,1.8-0.8,1.8-2.4c0-1.7-0.8-2.4-1.8-2.4
		c-1.1,0-1.8,0.8-1.8,2.4S1113.9,1870.4,1115,1870.4z"/>
	<path class="st2" d="M1120.8,1863.6h2.7v1.1l0,0c0.5-0.8,1.4-1.3,2.4-1.3c1.6,0,3.8,1.2,3.8,4.6s-2.1,4.6-3.8,4.6
		c-1,0-1.9-0.5-2.5-1.3l0,0v4.6h-2.7L1120.8,1863.6L1120.8,1863.6z M1125.2,1870.4c1,0,1.8-0.8,1.8-2.4c0-1.7-0.7-2.4-1.8-2.4
		s-1.8,0.8-1.8,2.4C1123.4,1869.5,1124.1,1870.4,1125.2,1870.4L1125.2,1870.4z"/>
	<path class="st2" d="M1130.4,1870.1l2.6-0.8c0.1,0.8,0.8,1.4,1.6,1.4c0.7,0,1.1-0.3,1.1-0.8s-0.4-0.8-2.1-1.2
		c-1.9-0.4-2.9-1.2-2.9-2.7c0-1.8,1.4-2.8,3.7-2.8c2,0,3.5,0.8,4,2.3l-2.5,0.8c-0.2-0.7-0.9-1.2-1.6-1.2c-0.6,0-1,0.3-1,0.7
		c0,0.5,0.3,0.8,2,1.1c2.1,0.4,3,1.2,3,2.7c0,1.8-1.5,3-3.8,3C1132.3,1872.7,1130.8,1871.7,1130.4,1870.1z"/>
	<path class="st2" d="M1093.4,1834.3h-1.3v-4.4h0.8c2.3,0.1,4.3-1.5,4.6-3.8h4.4v22.7h-4.7v-16.5
		C1096.4,1833.6,1094.9,1834.3,1093.4,1834.3z"/>
	<path class="st2" d="M1106,1842.6l5.1-0.6c0.1,1.9,1.7,3.3,3.6,3.2c2.4,0,3.8-1.5,3.8-4.2c0-2.4-1.4-3.9-3.7-3.9
		c-1.6,0-3.1,1-3.6,2.6l-4.6-1l1.4-12.6h14.2v4.1h-10.1l-0.6,4.5c1.3-0.9,2.8-1.4,4.3-1.4c4.7,0,7.6,2.9,7.6,7.6
		c0,5-3.5,8.3-8.7,8.3C1110.1,1849.2,1106.9,1846.7,1106,1842.6z"/>
	<path class="st2" d="M1125.8,1837.6c0-7.4,3-12,9.1-12s9.1,4.7,9.1,12c0,7.4-2.9,11.6-9.1,11.6S1125.8,1845,1125.8,1837.6z
		 M1134.8,1845.2c2.8,0,4.2-2.1,4.2-7.6s-1.4-8-4.2-8c-2.9,0-4.2,2.8-4.2,7.9C1130.6,1843,1131.9,1845.2,1134.8,1845.2z"/>
</g>
</svg>
