<svg xmlns="http://www.w3.org/2000/svg" xmlns:xlink="http://www.w3.org/1999/xlink" width="81.921" height="87.136" viewBox="0 0 81.921 87.136"><defs><clipPath id="a"><path d="M0,9.281H63.282V-54H0Z" transform="translate(0 54.002)" fill="#ffc241"/></clipPath><clipPath id="b"><path d="M0,2.235H81.921V-13.177H0Z" transform="translate(0 13.177)" fill="#291d18"/></clipPath></defs><g transform="translate(9.316)"><g transform="translate(0 0)" clip-path="url(#a)"><g transform="translate(0 0)"><path d="M7.865,6.8A8.2,8.2,0,0,1,.712,14.016a106.838,106.838,0,0,1-14.833.932,106.816,106.816,0,0,1-14.833-.932A8.2,8.2,0,0,1-36.108,6.8a123.148,123.148,0,0,1-.913-14.757,123.149,123.149,0,0,1,.913-14.757,8.2,8.2,0,0,1,7.153-7.212,106.948,106.948,0,0,1,14.833-.93,106.97,106.97,0,0,1,14.833.93A8.2,8.2,0,0,1,7.865-22.71,122.839,122.839,0,0,1,8.78-7.953,122.839,122.839,0,0,1,7.865,6.8m8.393-35.147a11.332,11.332,0,0,0-9.885-9.965,147.79,147.79,0,0,0-20.495-1.286,147.789,147.789,0,0,0-20.495,1.286A11.329,11.329,0,0,0-44.5-28.343a169.6,169.6,0,0,0-1.263,20.39A169.659,169.659,0,0,0-44.5,12.439,11.33,11.33,0,0,0-34.616,22.4a147.79,147.79,0,0,0,20.495,1.286A147.79,147.79,0,0,0,6.373,22.4a11.333,11.333,0,0,0,9.885-9.964A170.105,170.105,0,0,0,17.519-7.953a170.047,170.047,0,0,0-1.262-20.39" transform="translate(45.763 39.594)" fill="#ffc241"/></g><g transform="translate(34.563 21.148)"><path d="M.062.67A26.241,26.241,0,0,1,4.4.418,29.86,29.86,0,0,1,9.068.871a.372.372,0,0,0,.478-.4V-2.814c0-.3-.383-.4-.383-.4A20.419,20.419,0,0,0,4.416-3.9,19.071,19.071,0,0,0,0-3.457s-.366.114-.366.436V.231c0,.6.424.439.424.439" transform="translate(0.362 3.9)" fill="#ffc241"/></g><g transform="translate(18.56 19.44)"><path d="M.724,1.216S5.658,1.21,5.658-2.931.724-7.075.724-7.075s-4.935.006-4.935,4.144S.724,1.216.724,1.216" transform="translate(4.211 7.075)" fill="#ffc241"/></g><g transform="translate(17.79 35.961)"><path d="M3.968.018A25.718,25.718,0,0,1-9.241,3.839,25.719,25.719,0,0,1-22.451.018s-.641-.454-.641.39V2.092a1.834,1.834,0,0,0,.565,1.041c1.691,1.321,6.987,5.02,13.286,5.024S2.35,4.453,4.045,3.133a1.835,1.835,0,0,0,.564-1.041V.408c0-.844-.64-.39-.64-.39" transform="translate(23.092 0.104)" fill="#ffc241"/></g></g></g><g transform="translate(0 71.723)"><g transform="translate(0 0)" clip-path="url(#b)"><g transform="translate(0)"><path d="M0,0H6.758c3.074,0,4.8,1.432,4.8,3.684A3.415,3.415,0,0,1,9.37,6.97v.063a3.872,3.872,0,0,1,2.737,3.831c0,2.612-2.022,4.191-5.37,4.191H0ZM6.4,6.021A1.575,1.575,0,0,0,8.106,4.337,1.548,1.548,0,0,0,6.421,2.653H3.305V6.021Zm.463,6.3a1.726,1.726,0,0,0,1.79-1.875A1.808,1.808,0,0,0,6.8,8.486H3.305v3.832Z" fill="#291d18"/></g><g transform="translate(13.58 4.864)"><path d="M0,1.029v-7.1H3.137V.292A1.385,1.385,0,0,0,4.569,1.85c1.032,0,1.9-.695,1.9-2.442V-6.066H9.623V4.124H6.465V2.882H6.442A3.4,3.4,0,0,1,3.474,4.419,3.213,3.213,0,0,1,0,1.029" transform="translate(0 6.066)" fill="#291d18"/></g><g transform="translate(24.528 4.485)"><path d="M0,1.148,2.695.306A2.081,2.081,0,0,0,4.8,1.906c.759,0,1.242-.316,1.242-.884C6.042.18,5.032-.01,3.748-.3,2.021-.7.337-1.273.337-3.4S2.021-6.768,4.653-6.768c2.905,0,4.211,1.516,4.611,2.737L6.7-3.147A2.331,2.331,0,0,0,4.674-4.559c-.674,0-1.095.358-1.095.885,0,.779.947.905,2.211,1.2,1.663.4,3.474,1.032,3.474,3.179C9.264,2.559,8,4.159,4.8,4.159,1.663,4.159.316,2.58,0,1.148" transform="translate(0 6.768)" fill="#291d18"/></g><g transform="translate(34.865 0.084)"><path d="M0,.266A1.882,1.882,0,0,1,2.021-1.567,1.9,1.9,0,0,1,4.042.266,1.9,1.9,0,0,1,2.021,2.119,1.886,1.886,0,0,1,0,.266M.442,3.213H3.579V13.4H.442Z" transform="translate(0 1.567)" fill="#291d18"/></g><g transform="translate(40.36 4.569)"><path d="M0,.043H3.137V1.327h.021A3.47,3.47,0,0,1,6.19-.252,3.146,3.146,0,0,1,9.6,3.138v7.1H6.465V3.918a1.41,1.41,0,0,0-1.433-1.6c-1.053,0-1.895.716-1.895,2.505v5.411H0Z" transform="translate(0 0.252)" fill="#291d18"/></g><g transform="translate(51.393 4.485)"><path d="M0,.8C0-2.758,2.3-4.716,5.411-4.716c3.1,0,4.842,1.937,4.842,5.284V1.642H3.242a2.14,2.14,0,0,0,2.253,2A2.023,2.023,0,0,0,7.516,2.211L10,3.474A4.766,4.766,0,0,1,5.369,6.211,5.044,5.044,0,0,1,0,.8M6.99-.421C6.948-1.726,6.4-2.464,5.221-2.464c-1.158,0-1.811.8-1.874,2.043Z" transform="translate(0 4.716)" fill="#291d18"/></g><g transform="translate(62.551 4.485)"><path d="M0,1.148,2.695.306A2.081,2.081,0,0,0,4.8,1.906c.759,0,1.242-.316,1.242-.884C6.042.18,5.032-.01,3.748-.3,2.021-.7.337-1.273.337-3.4S2.021-6.768,4.653-6.768c2.905,0,4.211,1.516,4.611,2.737L6.7-3.147A2.331,2.331,0,0,0,4.674-4.559c-.674,0-1.095.358-1.095.885,0,.779.947.905,2.211,1.2,1.663.4,3.474,1.032,3.474,3.179C9.264,2.559,8,4.159,4.8,4.159,1.663,4.159.316,2.58,0,1.148" transform="translate(0 6.768)" fill="#291d18"/></g><g transform="translate(72.657 4.485)"><path d="M0,1.148,2.695.306A2.081,2.081,0,0,0,4.8,1.906c.758,0,1.242-.316,1.242-.884C6.042.18,5.032-.01,3.748-.3,2.021-.7.337-1.273.337-3.4S2.021-6.768,4.653-6.768c2.905,0,4.211,1.516,4.611,2.737L6.7-3.147A2.331,2.331,0,0,0,4.674-4.559c-.674,0-1.095.358-1.095.885,0,.779.947.905,2.211,1.2,1.663.4,3.474,1.032,3.474,3.179C9.264,2.559,8,4.159,4.8,4.159,1.663,4.159.316,2.58,0,1.148" transform="translate(0 6.768)" fill="#291d18"/></g></g></g></svg>