<?xml version="1.0" encoding="utf-8"?>
<!-- Generator: Adobe Illustrator 27.6.0, SVG Export Plug-In . SVG Version: 6.00 Build 0)  -->
<svg version="1.1" id="Layer_1" xmlns="http://www.w3.org/2000/svg" xmlns:xlink="http://www.w3.org/1999/xlink" x="0px" y="0px"
	 viewBox="0 0 114 101.2" style="enable-background:new 0 0 114 101.2;" xml:space="preserve">
<style type="text/css">
	.st0{fill:#1F9D91;}
	.st1{fill:#291D18;}
</style>
<g transform="translate(-1061.1 -1754)">
	<path class="st0" d="M1087.6,1846.6l-6.7,7.5c-23.8-20.6-26.4-56.5-5.8-80.3c20.6-23.8,56.5-26.4,80.3-5.8
		c23.8,20.6,26.4,56.5,5.8,80.3c-2.2,2.5-4.6,4.8-7.1,6.9l-6.6-7.5c20.4-16.2,23.8-45.8,7.6-66.2c-16.2-20.4-45.8-23.8-66.2-7.6
		c-20.4,16.2-23.8,45.8-7.6,66.2C1083.2,1842.4,1085.3,1844.6,1087.6,1846.6z"/>
	<path class="st1" d="M1109.2,1779.6h-4.3v-1.5h10.2v1.5h-4.3v11.4h-1.6L1109.2,1779.6L1109.2,1779.6z"/>
	<path class="st1" d="M1114.3,1786.7c0-3.1,2-4.6,4.1-4.6c2.2,0,4.2,1.5,4.2,4.6c0,3-2,4.6-4.2,4.6
		C1116.3,1791.3,1114.3,1789.8,1114.3,1786.7z M1118.5,1790c1.4,0,2.6-1,2.6-3.3c0-2.4-1.3-3.3-2.6-3.3c-1.4,0-2.6,0.9-2.6,3.2
		C1115.9,1789,1117.1,1790,1118.5,1790z"/>
	<path class="st1" d="M1125.4,1789.3v-5.6h-1.7v-1.3h1.2c0.4,0,0.5-0.1,0.5-0.5v-1.8l1.5-0.3v2.6h2.1v1.3h-2.1v5.4
		c-0.1,0.4,0.2,0.8,0.7,0.9c0.1,0,0.1,0,0.2,0c0.3,0,0.7-0.1,1-0.2l0.3,1.2c-0.5,0.2-1,0.3-1.5,0.3
		C1126.1,1791.2,1125.4,1790.4,1125.4,1789.3z"/>
	<path class="st1" d="M1104.6,1838.6c0-4.7,3.1-6.8,6.4-6.8c2.7-0.1,5.1,1.7,5.8,4.3l-2.9,0.7c-0.2-1.5-1.5-2.6-3-2.6
		c-1.7,0-3.3,1.2-3.3,4.3c0,3,1.6,4.2,3.6,4.2c1.9,0,3.2-1.2,3.2-2.5v-0.2h-3.3v-2.1h6v7h-2.1l-0.2-2.3l0,0
		c-0.7,1.7-2.3,2.7-4.1,2.6C1108.1,1845.3,1104.6,1843.6,1104.6,1838.6z"/>
	<path class="st1" d="M1119.1,1832.1h5.8c2.6,0,4.1,1.2,4.1,3.2c0,1.2-0.8,2.3-1.9,2.8v0.1c1.4,0.4,2.4,1.8,2.3,3.3
		c0,2.2-1.7,3.6-4.6,3.6h-5.8L1119.1,1832.1L1119.1,1832.1z M1124.5,1837.3c0.8,0.1,1.4-0.5,1.5-1.3c0,0,0-0.1,0-0.1
		c0.1-0.7-0.4-1.3-1.1-1.4c-0.1,0-0.2,0-0.3,0h-2.7v2.9L1124.5,1837.3L1124.5,1837.3z M1124.9,1842.7c0.8,0,1.5-0.6,1.5-1.4
		c0-0.1,0-0.1,0-0.2c0.1-0.9-0.5-1.6-1.4-1.7c-0.1,0-0.1,0-0.2,0h-3v3.3L1124.9,1842.7L1124.9,1842.7z"/>
	<path class="st1" d="M1087.5,1816.5l5.1-0.6c-0.1,1.9,1.3,3.6,3.3,3.7c0.2,0,0.4,0,0.5,0c2.2,0,3.6-1.2,3.6-3.1
		c0-2.5-2.4-3.5-5.7-3.5v-3.6c3.1-0.1,4.9-1.2,4.9-3.1c0-1.5-1.3-2.7-2.8-2.6c-0.1,0-0.1,0-0.2,0c-2.5,0-3.7,1.6-3.7,3.8l-4.5-0.6
		c0.2-4.1,2.8-7.1,8.2-7.1c5,0,7.9,2.7,7.9,5.9c-0.1,2.4-1.8,4.5-4.2,5.1v0.1c2.2,0.5,5,1.8,5,5.7c0,4.1-3.4,6.8-8.7,6.8
		C1090.8,1823.4,1088,1820.6,1087.5,1816.5z"/>
	<path class="st1" d="M1107.3,1811.9c0-7.4,3-12,9.1-12s9.1,4.7,9.1,12c0,7.4-2.9,11.6-9.1,11.6
		C1110.3,1823.4,1107.3,1819.3,1107.3,1811.9z M1116.4,1819.4c2.8,0,4.2-2.1,4.2-7.6s-1.4-8-4.2-8c-2.9,0-4.2,2.8-4.2,7.9
		C1112.2,1817.2,1113.5,1819.4,1116.4,1819.4z"/>
	<path class="st1" d="M1127.8,1811.9c0-7.4,3-12,9.1-12s9.1,4.7,9.1,12c0,7.4-2.9,11.6-9.1,11.6
		C1130.8,1823.4,1127.8,1819.3,1127.8,1811.9z M1136.9,1819.4c2.8,0,4.2-2.1,4.2-7.6s-1.4-8-4.2-8c-2.9,0-4.2,2.8-4.2,7.9
		C1132.7,1817.2,1134,1819.4,1136.9,1819.4z"/>
</g>
</svg>
