<?xml version="1.0" encoding="utf-8"?>
<!-- Generator: Adobe Illustrator 27.6.0, SVG Export Plug-In . SVG Version: 6.00 Build 0)  -->
<svg version="1.1" id="Layer_1" xmlns="http://www.w3.org/2000/svg" xmlns:xlink="http://www.w3.org/1999/xlink" x="0px" y="0px"
	 viewBox="0 0 124.6 124.7" style="enable-background:new 0 0 124.6 124.7;" xml:space="preserve">
<style type="text/css">
	.st0{clip-path:url(#SVGID_00000071522997392851726110000005568119526278808226_);}
	.st1{fill:#FFC421;}
	.st2{enable-background:new    ;}
</style>
<g id="Group_1207" transform="translate(-1045.619 -2178)">
	<g id="Group_1202" transform="translate(1045.619 2178)">
		<g>
			<g>
				<defs>
					<rect id="SVGID_1_" width="124.6" height="124.7"/>
				</defs>
				<clipPath id="SVGID_00000120535335699489501660000006507239253923594403_">
					<use xlink:href="#SVGID_1_"  style="overflow:visible;"/>
				</clipPath>
				<g id="Group_1192" style="clip-path:url(#SVGID_00000120535335699489501660000006507239253923594403_);">
					<path id="Path_1399" class="st1" d="M122.2,22.2C121,11.9,113,3.8,102.7,2.6C89.3,0.8,75.8-0.1,62.3,0
						C48.8-0.1,35.3,0.8,22,2.5C11.7,3.8,3.7,11.9,2.5,22.2C0.9,35.5,0,48.9,0,62.3s0.9,26.8,2.5,40.2c1.2,10.3,9.2,18.4,19.5,19.6
						c13.4,1.8,26.9,2.6,40.4,2.5c13.5,0.1,27-0.8,40.4-2.5c10.2-1.3,18.3-9.4,19.5-19.6c1.6-13.3,2.5-26.7,2.5-40.2
						C124.6,48.9,123.8,35.5,122.2,22.2"/>
				</g>
			</g>
		</g>
	</g>
	<g class="st2">
		<path d="M1060.3,2209.7h3.6c1.1-5,4.7-7.5,8.5-7.5c4.2,0,6.8,2.9,7.8,6.7l-2.6,0.9c-0.8-3.5-2.8-5.2-5.2-5.2
			c-2.7,0-4.9,1.7-5.8,5.1h9.2l-0.5,2.3h-9c0,0.4,0,0.8,0,1.2c0,0.3,0,0.7,0,1h8.3l-0.5,2.3h-7.5c0.9,3.6,3.2,5.5,6,5.5
			c2.7,0,4.6-1.7,5-4.7l2.6,0.5c-0.8,3.8-3.3,6.6-7.6,6.6c-4,0-7.6-2.6-8.7-7.8h-4.4v-2.3h4.2v-1c0-0.4,0-0.8,0-1.2h-3.2v-2.4
			H1060.3z"/>
	</g>
	<g class="st2">
		<path d="M1103,2213.3c0-3-1.6-5.6-5.2-5.6c-4.5,0-6.7,3.9-6.8,9.2l-7.5-2.1c0.8-8.1,5.5-14,14.6-14c8.8,0,13.4,5.6,13.4,11.9
			c0,6.9-5.9,13.9-15.3,21.1h15.4v7.6h-27.4v-5.7C1098.4,2224,1103,2218.5,1103,2213.3z"/>
		<path d="M1115.6,2230.5l8.9-1.1c0.6,3.5,2.8,5.5,6.4,5.5c4.3,0,6.7-2.7,6.7-7.3c0-4.3-2.4-6.8-6.5-6.8c-2.9,0-5.1,1.5-6.4,4.5
			l-8.1-1.7l2.5-22.1h24.8v7.2h-17.6l-1.1,8c2.1-1.6,4.9-2.5,7.5-2.5c8.2,0,13.4,5.2,13.4,13.3c0,8.7-6.1,14.5-15.3,14.5
			C1122.8,2242.1,1117.2,2237.8,1115.6,2230.5z"/>
	</g>
	<g class="st2">
		<path d="M1070.2,2256.6h2.4v1l0,0c0.4-0.6,1.1-1.2,2.2-1.2c1.4,0,3.4,1,3.4,4.1c0,3-1.9,4.1-3.4,4.1c-1,0-1.7-0.5-2.2-1.1l0,0v4.1
			h-2.4V2256.6z M1074.2,2262.6c0.9,0,1.6-0.7,1.6-2.2s-0.7-2.1-1.6-2.1s-1.6,0.7-1.6,2.1
			C1072.6,2261.8,1073.2,2262.6,1074.2,2262.6z"/>
		<path d="M1078.9,2260.5c0-2.7,1.8-4.2,4-4.2c2.5,0,3.8,1.5,3.8,4v0.8h-5.3c0.1,0.9,0.8,1.5,1.7,1.5c0.8,0,1.3-0.5,1.5-1.1l1.9,1
			c-0.5,1.1-1.7,2.1-3.6,2.1S1078.9,2263.4,1078.9,2260.5z M1084.2,2259.6c0-1-0.4-1.6-1.3-1.6s-1.4,0.6-1.4,1.6H1084.2z"/>
		<path d="M1087.9,2256.6h2.4v1.1l0,0c0.4-0.7,1-1.3,1.8-1.3c0.4,0,0.8,0.1,1.2,0.3l-0.4,2.2c-0.3-0.1-0.7-0.2-1-0.2
			c-1.1,0-1.5,0.9-1.5,2.4v3.3h-2.4L1087.9,2256.6L1087.9,2256.6z"/>
		<path d="M1098.3,2256.6h2.4v1l0,0c0.4-0.6,1-1.2,2.1-1.2c0.8,0,1.6,0.3,2.1,1.3c0.5-0.7,1.2-1.3,2.4-1.3c1,0,2.7,0.4,2.7,3v5h-2.4
			v-4.8c0-0.7-0.3-1.2-0.9-1.2c-1,0-1.3,1-1.3,1.8v4.2h-2.4v-4.8c0-0.7-0.3-1.2-1-1.2c-1,0-1.3,0.9-1.3,1.8v4.2h-2.4L1098.3,2256.6
			L1098.3,2256.6z"/>
		<path d="M1111.3,2262.3c0-1.4,1-2.3,3.3-2.7l1.2-0.2c0.5-0.1,0.6-0.2,0.6-0.5c0-0.4-0.4-0.7-1.2-0.7c-0.9,0-1.6,0.4-1.8,1.1
			l-1.7-1c0.5-1.2,1.9-2,3.7-2c2.2,0,3.4,1.1,3.4,2.9l-0.1,2.9c0,0.4,0.2,0.6,0.6,0.5v1.7c-0.3,0.1-0.5,0.1-0.8,0.1
			c-1.2,0-1.8-0.5-1.9-1.8l0,0c-0.3,1.1-1.3,1.8-2.6,1.8C1112.3,2264.6,1111.3,2263.7,1111.3,2262.3z M1114.6,2262.6
			c0.9,0,1.8-0.8,1.9-1.6v-0.7c-0.1,0.2-0.4,0.4-0.8,0.5l-0.7,0.2c-0.9,0.2-1.2,0.5-1.2,0.9
			C1113.7,2262.4,1114,2262.6,1114.6,2262.6z"/>
		<path d="M1120.2,2262.3c0-1.4,1-2.3,3.3-2.7l1.2-0.2c0.5-0.1,0.6-0.2,0.6-0.5c0-0.4-0.4-0.7-1.2-0.7c-0.9,0-1.6,0.4-1.8,1.1
			l-1.7-1c0.5-1.2,1.9-2,3.7-2c2.2,0,3.4,1.1,3.4,2.9l-0.1,2.9c0,0.4,0.2,0.6,0.6,0.5v1.7c-0.3,0.1-0.5,0.1-0.8,0.1
			c-1.2,0-1.8-0.5-1.9-1.8l0,0c-0.3,1.1-1.3,1.8-2.6,1.8C1121.2,2264.6,1120.2,2263.7,1120.2,2262.3z M1123.5,2262.6
			c0.9,0,1.8-0.8,1.9-1.6v-0.7c-0.1,0.2-0.4,0.4-0.8,0.5l-0.7,0.2c-0.9,0.2-1.2,0.5-1.2,0.9
			C1122.6,2262.4,1122.9,2262.6,1123.5,2262.6z"/>
		<path d="M1129.3,2256.6h2.4v1l0,0c0.4-0.7,1.2-1.2,2.3-1.2c1.3,0,2.6,0.7,2.6,2.6v5.4h-2.4v-4.8c0-0.7-0.4-1.2-1.1-1.2
			c-0.8,0-1.4,0.5-1.4,1.9v4.1h-2.4V2256.6z"/>
		<path d="M1137.7,2260.4c0-3,1.8-4.1,3.3-4.1c1.1,0,1.8,0.5,2.3,1.2l0,0v-4.6h2.4v11.4h-2.4v-0.9l0,0c-0.4,0.6-1.1,1.2-2.2,1.2
			C1139.6,2264.6,1137.7,2263.5,1137.7,2260.4z M1141.7,2262.6c1,0,1.6-0.8,1.6-2.2s-0.6-2.1-1.6-2.1c-0.9,0-1.6,0.7-1.6,2.1
			C1140.1,2261.9,1140.7,2262.6,1141.7,2262.6z"/>
	</g>
	<g class="st2">
		<path d="M1081.2,2273.8h5.5v1h-4.5v2.7h4v1h-4v2.9h4.5v1h-5.5V2273.8z"/>
		<path d="M1089.9,2279.4l-2.1-2.8h1.2l1.5,2.1l0,0l1.5-2.1h1.2l-2,2.8l2.1,3h-1.2l-1.5-2.2l0,0l-1.6,2.2h-1.2L1089.9,2279.4z"/>
		<path d="M1093.8,2279.5c0-2.1,1.3-3.1,2.8-3.1c1.1,0,2,0.6,2.4,1.7l-1,0.3c-0.2-0.8-0.7-1.2-1.4-1.2c-0.9,0-1.7,0.6-1.7,2.2
			c0,1.6,0.9,2.2,1.8,2.2c0.6,0,1.2-0.3,1.4-1.3h1.1c-0.2,1.3-1.2,2.1-2.5,2.1C1095.1,2282.5,1093.8,2281.5,1093.8,2279.5z"/>
		<path d="M1100.4,2273.8h1v8.6h-1V2273.8z"/>
		<path d="M1103,2281.7c0-0.4,0.3-0.8,0.8-0.8s0.8,0.4,0.8,0.8c0,0.4-0.3,0.8-0.8,0.8S1103,2282.1,1103,2281.7z"/>
		<path d="M1109.6,2273.8h3.3c1.5,0,2.4,0.9,2.4,2.2c0,0.9-0.6,1.6-1.2,1.8l0,0c0.9,0.3,1.5,1,1.5,2.2c0,1.4-0.9,2.4-2.6,2.4h-3.4
			L1109.6,2273.8L1109.6,2273.8z M1112.9,2277.4c0.7,0,1.3-0.5,1.3-1.3s-0.5-1.4-1.2-1.4h-2.3v2.7H1112.9z M1113.2,2281.3
			c0.8,0,1.4-0.6,1.4-1.5c0-1-0.6-1.6-1.4-1.6h-2.4v3h2.4V2281.3z"/>
		<path d="M1119.1,2274.7h-2.9v-1h6.8v1h-2.9v7.6h-1.1L1119.1,2274.7L1119.1,2274.7z"/>
		<path d="M1123.8,2273.8h1.1l2.1,7l0,0l2.1-7h0.9l2.1,7l0,0l2-7h1.1l-2.6,8.6h-1.1l-2-7l0,0l-2,7h-1.1L1123.8,2273.8z"/>
	</g>
</g>
</svg>
