<?xml version="1.0" encoding="utf-8"?>
<!-- Generator: Adobe Illustrator 27.6.0, SVG Export Plug-In . SVG Version: 6.00 Build 0)  -->
<svg version="1.1" id="Layer_1" xmlns="http://www.w3.org/2000/svg" xmlns:xlink="http://www.w3.org/1999/xlink" x="0px" y="0px"
	 viewBox="0 0 114 101.2" style="enable-background:new 0 0 114 101.2;" xml:space="preserve">
<style type="text/css">
	.st0{fill:#1F9D91;}
	.st1{fill:#291D18;}
</style>
<g transform="translate(-1060.1 -4126.9)">
	<path class="st0" d="M1070.1,4184c0-26,21-47,46.9-47.1c26,0,47,21,47.1,46.9c0,14.3-6.5,27.8-17.6,36.7l6.6,7.5
		c24.5-19.9,28.2-55.8,8.4-80.3s-55.8-28.2-80.3-8.4c-24.5,19.9-28.2,55.8-8.4,80.3c2.1,2.6,4.5,5.1,7.1,7.3l6.7-7.5
		C1076.1,4210.7,1070,4197.7,1070.1,4184z"/>
	<path class="st1" d="M1109.3,4152.6h-4.3v-1.5h10.2v1.5h-4.3v11.4h-1.6L1109.3,4152.6L1109.3,4152.6z"/>
	<path class="st1" d="M1114.4,4159.7c0-3.1,2-4.6,4.1-4.6s4.2,1.5,4.2,4.6c0,3-2,4.6-4.2,4.6
		C1116.4,4164.3,1114.4,4162.8,1114.4,4159.7z M1118.6,4163c1.4,0,2.6-1,2.6-3.3c0-2.4-1.3-3.3-2.6-3.3c-1.4,0-2.6,0.9-2.6,3.2
		C1115.9,4162,1117.2,4163,1118.6,4163z"/>
	<path class="st1" d="M1125.4,4162.3v-5.6h-1.7v-1.3h1.2c0.4,0,0.5-0.1,0.5-0.5v-1.8l1.5-0.3v2.6h2.1v1.3h-2.1v5.4
		c-0.1,0.4,0.2,0.8,0.7,0.9c0.1,0,0.1,0,0.2,0c0.3,0,0.7-0.1,1-0.2l0.3,1.2c-0.5,0.2-1,0.3-1.5,0.3
		C1126.1,4164.2,1125.4,4163.4,1125.4,4162.3z"/>
	<path class="st1" d="M1096,4211.6c0-4.7,3.1-6.8,6.4-6.8c2.7-0.1,5.1,1.7,5.8,4.3l-2.9,0.7c-0.2-1.5-1.5-2.6-3-2.6
		c-1.7,0-3.3,1.2-3.3,4.3c0,3,1.6,4.2,3.6,4.2c1.9,0,3.2-1.2,3.2-2.5v-0.2h-3.3v-2.1h6v7h-2.1l-0.2-2.3l0,0
		c-0.7,1.7-2.3,2.7-4.1,2.6C1099.5,4218.3,1096,4216.6,1096,4211.6z"/>
	<path class="st1" d="M1113,4216.9L1113,4216.9v1.1h-2.7v-12.9h2.7v5.2l0,0c0.6-0.9,1.6-1.4,2.6-1.3c1.6,0,3.7,1.2,3.7,4.6
		c0,3.5-2.3,4.6-3.8,4.6C1114.5,4218.3,1113.5,4217.8,1113,4216.9z M1114.8,4216.1c1,0,1.8-0.8,1.8-2.4c0-1.7-0.8-2.4-1.8-2.4
		c-1.1,0-1.8,0.8-1.8,2.4C1113,4215.2,1113.7,4216.1,1114.8,4216.1z"/>
	<path class="st1" d="M1120.6,4209.3h2.7v1.1l0,0c0.5-0.8,1.4-1.3,2.4-1.3c1.6,0,3.8,1.2,3.8,4.6s-2.1,4.6-3.8,4.6
		c-1,0-1.9-0.5-2.5-1.3l0,0v4.6h-2.7L1120.6,4209.3L1120.6,4209.3z M1125,4216.1c1,0,1.8-0.8,1.8-2.4c0-1.7-0.7-2.4-1.8-2.4
		s-1.8,0.8-1.8,2.4C1123.2,4215.2,1123.9,4216.1,1125,4216.1L1125,4216.1z"/>
	<path class="st1" d="M1130.2,4215.7l2.6-0.8c0.1,0.8,0.8,1.4,1.6,1.4c0.7,0,1.1-0.3,1.1-0.8s-0.4-0.8-2.1-1.2
		c-1.9-0.4-2.9-1.2-2.9-2.7c0-1.8,1.4-2.8,3.7-2.8c2,0,3.5,0.8,4,2.3l-2.5,0.8c-0.2-0.7-0.9-1.2-1.6-1.2c-0.6,0-1,0.3-1,0.7
		c0,0.5,0.3,0.8,2,1.1c2.1,0.4,3,1.2,3,2.7c0,1.8-1.5,3-3.8,3C1132.1,4218.3,1130.6,4217.4,1130.2,4215.7z"/>
	<path class="st1" d="M1112.5,4181.5h-1.3v-4.4h0.8c2.3,0.1,4.3-1.5,4.6-3.8h4.4v22.7h-4.7v-16.5
		C1115.4,4180.8,1114,4181.5,1112.5,4181.5z"/>
</g>
</svg>
