<?xml version="1.0" encoding="utf-8"?>
<!-- Generator: Adobe Illustrator 27.6.0, SVG Export Plug-In . SVG Version: 6.00 Build 0)  -->
<svg version="1.1" id="Layer_1" xmlns="http://www.w3.org/2000/svg" xmlns:xlink="http://www.w3.org/1999/xlink" x="0px" y="0px"
	 viewBox="0 0 124.6 124.7" style="enable-background:new 0 0 124.6 124.7;" xml:space="preserve">
<style type="text/css">
	.st0{clip-path:url(#SVGID_00000019647583339572447840000015453151446716605330_);}
	.st1{fill:#FFC421;}
	.st2{enable-background:new    ;}
</style>
<g id="Group_1206" transform="translate(-652.369 -2178)">
	<g id="Group_1201" transform="translate(652.369 2178)">
		<g>
			<g>
				<defs>
					<rect id="SVGID_1_" width="124.6" height="124.7"/>
				</defs>
				<clipPath id="SVGID_00000056397407859869477150000016287822754476472476_">
					<use xlink:href="#SVGID_1_"  style="overflow:visible;"/>
				</clipPath>
				<g id="Group_1192" style="clip-path:url(#SVGID_00000056397407859869477150000016287822754476472476_);">
					<path id="Path_1399" class="st1" d="M122.2,22.2C121,11.9,113,3.8,102.7,2.6C89.3,0.8,75.8-0.1,62.3,0
						C48.8-0.1,35.3,0.8,22,2.5C11.7,3.8,3.7,11.9,2.5,22.2C0.9,35.5,0,48.9,0,62.3s0.9,26.8,2.5,40.2c1.2,10.3,9.2,18.4,19.5,19.6
						c13.4,1.8,26.9,2.6,40.4,2.5c13.5,0.1,27-0.8,40.4-2.5c10.2-1.3,18.3-9.4,19.5-19.6c1.6-13.3,2.5-26.7,2.5-40.2
						C124.6,48.9,123.8,35.5,122.2,22.2"/>
				</g>
			</g>
		</g>
	</g>
	<g class="st2">
		<path d="M666.2,2209.7h3.6c1.1-5,4.7-7.5,8.5-7.5c4.2,0,6.8,2.9,7.8,6.7l-2.6,0.9c-0.8-3.5-2.8-5.2-5.2-5.2
			c-2.7,0-4.9,1.7-5.8,5.1h9.2l-0.5,2.3h-9c0,0.4,0,0.8,0,1.2c0,0.3,0,0.7,0,1h8.3l-0.5,2.3h-7.5c0.9,3.6,3.2,5.5,6,5.5
			c2.7,0,4.6-1.7,5-4.7l2.6,0.5c-0.8,3.8-3.3,6.6-7.6,6.6c-4,0-7.6-2.6-8.7-7.8h-4.4v-2.3h4.2v-1c0-0.4,0-0.8,0-1.2h-3.2v-2.4H666.2
			z"/>
	</g>
	<g class="st2">
		<path d="M708.9,2213.3c0-3-1.6-5.6-5.2-5.6c-4.5,0-6.7,3.9-6.8,9.2l-7.5-2.1c0.8-8.1,5.5-14,14.6-14c8.8,0,13.4,5.6,13.4,11.9
			c0,6.9-5.9,13.9-15.3,21.1h15.4v7.6h-27.4v-5.7C704.3,2224,708.9,2218.5,708.9,2213.3z"/>
		<path d="M721.8,2221.8c0-12.9,5.2-21,15.9-21c10.8,0,15.9,8.2,15.9,21c0,12.9-5.2,20.2-15.9,20.2
			C727.1,2242.1,721.8,2234.8,721.8,2221.8z M737.8,2235.1c5,0,7.4-3.8,7.4-13.3c0-9.6-2.5-13.9-7.4-13.9c-5.1,0-7.4,4.9-7.4,13.8
			C730.4,2231.2,732.7,2235.1,737.8,2235.1z"/>
	</g>
	<g class="st2">
		<path d="M677,2256.6h2.4v1l0,0c0.4-0.6,1.1-1.2,2.2-1.2c1.4,0,3.4,1,3.4,4.1c0,3-1.9,4.1-3.4,4.1c-1,0-1.7-0.5-2.2-1.1l0,0v4.1
			H677V2256.6z M680.9,2262.6c0.9,0,1.6-0.7,1.6-2.2s-0.7-2.1-1.6-2.1c-0.9,0-1.6,0.7-1.6,2.1
			C679.3,2261.8,679.9,2262.6,680.9,2262.6z"/>
		<path d="M685.7,2260.5c0-2.7,1.8-4.2,4-4.2c2.5,0,3.8,1.5,3.8,4v0.8h-5.3c0.1,0.9,0.8,1.5,1.7,1.5c0.8,0,1.3-0.5,1.5-1.1l1.9,1
			c-0.5,1.1-1.7,2.1-3.6,2.1C687.7,2264.6,685.7,2263.4,685.7,2260.5z M691,2259.6c0-1-0.4-1.6-1.3-1.6c-0.9,0-1.4,0.6-1.4,1.6H691z
			"/>
		<path d="M694.7,2256.6h2.4v1.1l0,0c0.4-0.7,1-1.3,1.8-1.3c0.4,0,0.8,0.1,1.2,0.3l-0.4,2.2c-0.3-0.1-0.7-0.2-1-0.2
			c-1.1,0-1.5,0.9-1.5,2.4v3.3h-2.4L694.7,2256.6L694.7,2256.6z"/>
		<path d="M705.1,2256.6h2.4v1l0,0c0.4-0.6,1-1.2,2.1-1.2c0.8,0,1.6,0.3,2.1,1.3c0.5-0.7,1.2-1.3,2.4-1.3c1,0,2.7,0.4,2.7,3v5h-2.4
			v-4.8c0-0.7-0.3-1.2-0.9-1.2c-1,0-1.3,1-1.3,1.8v4.2h-2.4v-4.8c0-0.7-0.3-1.2-1-1.2c-1,0-1.3,0.9-1.3,1.8v4.2h-2.4L705.1,2256.6
			L705.1,2256.6z"/>
		<path d="M718.1,2262.3c0-1.4,1-2.3,3.3-2.7l1.2-0.2c0.5-0.1,0.6-0.2,0.6-0.5c0-0.4-0.4-0.7-1.2-0.7c-0.9,0-1.6,0.4-1.8,1.1l-1.7-1
			c0.5-1.2,1.9-2,3.7-2c2.2,0,3.4,1.1,3.4,2.9l-0.1,2.9c0,0.4,0.2,0.6,0.6,0.5v1.7c-0.3,0.1-0.5,0.1-0.8,0.1c-1.2,0-1.8-0.5-1.9-1.8
			l0,0c-0.3,1.1-1.3,1.8-2.6,1.8C719.1,2264.6,718.1,2263.7,718.1,2262.3z M721.3,2262.6c0.9,0,1.8-0.8,1.9-1.6v-0.7
			c-0.1,0.2-0.4,0.4-0.8,0.5l-0.7,0.2c-0.9,0.2-1.2,0.5-1.2,0.9C720.4,2262.4,720.7,2262.6,721.3,2262.6z"/>
		<path d="M727,2262.3c0-1.4,1-2.3,3.3-2.7l1.2-0.2c0.5-0.1,0.6-0.2,0.6-0.5c0-0.4-0.4-0.7-1.2-0.7c-0.9,0-1.6,0.4-1.8,1.1l-1.7-1
			c0.5-1.2,1.9-2,3.7-2c2.2,0,3.4,1.1,3.4,2.9l-0.1,2.9c0,0.4,0.2,0.6,0.6,0.5v1.7c-0.3,0.1-0.5,0.1-0.8,0.1c-1.2,0-1.8-0.5-1.9-1.8
			l0,0c-0.3,1.1-1.3,1.8-2.6,1.8C728,2264.6,727,2263.7,727,2262.3z M730.2,2262.6c0.9,0,1.8-0.8,1.9-1.6v-0.7
			c-0.1,0.2-0.4,0.4-0.8,0.5l-0.7,0.2c-0.9,0.2-1.2,0.5-1.2,0.9C729.3,2262.4,729.7,2262.6,730.2,2262.6z"/>
		<path d="M736.1,2256.6h2.4v1l0,0c0.4-0.7,1.2-1.2,2.3-1.2c1.3,0,2.6,0.7,2.6,2.6v5.4H741v-4.8c0-0.7-0.4-1.2-1.1-1.2
			c-0.8,0-1.4,0.5-1.4,1.9v4.1h-2.4V2256.6z"/>
		<path d="M744.4,2260.4c0-3,1.8-4.1,3.3-4.1c1.1,0,1.8,0.5,2.3,1.2l0,0v-4.6h2.4v11.4H750v-0.9l0,0c-0.4,0.6-1.1,1.2-2.2,1.2
			C746.4,2264.6,744.4,2263.5,744.4,2260.4z M748.4,2262.6c1,0,1.6-0.8,1.6-2.2s-0.6-2.1-1.6-2.1c-0.9,0-1.6,0.7-1.6,2.1
			C746.8,2261.9,747.5,2262.6,748.4,2262.6z"/>
	</g>
	<g class="st2">
		<path d="M688,2273.8h5.5v1H689v2.7h4v1h-4v2.9h4.5v1H688V2273.8z"/>
		<path d="M696.7,2279.4l-2.1-2.8h1.2l1.5,2.1l0,0l1.5-2.1h1.2l-2,2.8l2.1,3h-1.2l-1.5-2.2l0,0l-1.6,2.2h-1.2L696.7,2279.4z"/>
		<path d="M700.6,2279.5c0-2.1,1.3-3.1,2.8-3.1c1.1,0,2,0.6,2.4,1.7l-1,0.3c-0.2-0.8-0.7-1.2-1.4-1.2c-0.9,0-1.7,0.6-1.7,2.2
			c0,1.6,0.9,2.2,1.8,2.2c0.6,0,1.2-0.3,1.4-1.3h1.1c-0.2,1.3-1.2,2.1-2.5,2.1C701.9,2282.5,700.6,2281.5,700.6,2279.5z"/>
		<path d="M707.2,2273.8h1v8.6h-1V2273.8z"/>
		<path d="M709.8,2281.7c0-0.4,0.3-0.8,0.8-0.8s0.8,0.4,0.8,0.8c0,0.4-0.3,0.8-0.8,0.8S709.8,2282.1,709.8,2281.7z"/>
		<path d="M716.4,2273.8h3.3c1.5,0,2.4,0.9,2.4,2.2c0,0.9-0.6,1.6-1.2,1.8l0,0c0.9,0.3,1.5,1,1.5,2.2c0,1.4-0.9,2.4-2.6,2.4h-3.4
			V2273.8z M719.7,2277.4c0.7,0,1.3-0.5,1.3-1.3s-0.5-1.4-1.2-1.4h-2.3v2.7H719.7z M719.9,2281.3c0.8,0,1.4-0.6,1.4-1.5
			c0-1-0.6-1.6-1.4-1.6h-2.4v3h2.4V2281.3z"/>
		<path d="M725.9,2274.7H723v-1h6.8v1h-2.9v7.6h-1.1v-7.6H725.9z"/>
		<path d="M730.5,2273.8h1.1l2.1,7l0,0l2.1-7h0.9l2.1,7l0,0l2-7h1.1l-2.6,8.6h-1.1l-2-7l0,0l-2,7h-1.1L730.5,2273.8z"/>
	</g>
</g>
</svg>
