<?xml version="1.0" standalone="no"?>
<!DOCTYPE svg PUBLIC "-//W3C//DTD SVG 20010904//EN"
 "http://www.w3.org/TR/2001/REC-SVG-20010904/DTD/svg10.dtd">
<svg version="1.0" xmlns="http://www.w3.org/2000/svg"
 width="391.000000pt" height="391.000000pt" viewBox="0 0 391.000000 391.000000"
 preserveAspectRatio="xMidYMid meet">
<metadata>
Created by potrace 1.11, written by Peter Selinger 2001-2013
</metadata>
<g transform="translate(0.000000,391.000000) scale(0.100000,-0.100000)"
fill="#000000" stroke="none">
<path d="M1568 3545 c-1 -2 -59 -6 -128 -10 -69 -3 -143 -8 -165 -10 -22 -2
-69 -7 -105 -10 -345 -33 -431 -62 -557 -192 -91 -94 -144 -212 -158 -359 -4
-32 -8 -76 -10 -96 -9 -76 -19 -195 -32 -398 -15 -229 -7 -980 11 -1076 2 -10
7 -64 10 -119 4 -55 9 -107 11 -115 2 -8 6 -46 10 -83 15 -156 66 -277 160
-372 122 -125 239 -165 560 -191 39 -3 86 -7 105 -9 188 -21 867 -27 1120 -11
483 30 629 57 748 136 102 69 171 158 213 278 21 61 50 275 64 472 21 300 27
869 12 1100 -15 220 -24 322 -42 485 -17 154 -70 270 -165 365 -89 89 -181
136 -304 156 -21 3 -46 7 -56 9 -9 2 -53 6 -96 10 -43 4 -87 9 -96 11 -10 1
-61 6 -115 9 -54 4 -116 9 -138 12 -47 5 -851 13 -857 8z m697 -430 c72 -4
142 -8 157 -10 14 -2 59 -6 100 -10 171 -15 256 -45 335 -118 90 -83 121 -161
139 -352 3 -38 8 -83 10 -100 25 -204 25 -785 -1 -1035 -2 -19 -6 -66 -10
-105 -14 -155 -55 -254 -135 -329 -86 -80 -156 -105 -345 -121 -38 -3 -80 -8
-93 -10 -134 -22 -844 -23 -982 -1 -14 3 -59 7 -100 10 -41 3 -85 8 -96 10
-12 3 -39 7 -60 10 -96 16 -200 88 -259 181 -43 67 -59 132 -71 275 -3 41 -8
86 -10 100 -24 154 -24 796 1 1020 2 19 6 67 10 105 14 163 44 242 121 325 24
25 65 58 91 72 69 38 106 46 263 63 36 3 83 8 105 10 22 3 105 7 185 11 80 4
146 7 147 8 6 5 380 -2 498 -9z"/>
<path d="M1452 2595 c-101 -31 -154 -96 -154 -187 0 -98 61 -169 167 -193 101
-24 218 11 271 80 39 52 46 137 14 197 -26 50 -40 62 -100 89 -55 25 -141 31
-198 14z"/>
<path d="M2268 2525 c-2 -2 -30 -5 -63 -6 -74 -3 -135 -18 -136 -33 -1 -17 -1
-138 0 -164 1 -22 3 -23 59 -16 93 11 201 10 302 -3 79 -10 97 -10 105 1 8 11
13 141 6 178 -1 7 -83 26 -141 33 -66 8 -129 13 -132 10z"/>
<path d="M1260 1742 c0 -77 7 -88 110 -154 371 -239 732 -241 1100 -7 111 71
123 86 123 159 0 33 -2 62 -5 66 -3 3 -43 -16 -89 -41 -349 -193 -766 -198
-1122 -13 -127 67 -117 68 -117 -10z"/>
</g>
</svg>
